<?xml version="1.0" encoding="UTF-8"?><svg viewBox="0 0 156 138" width="156px" height="138px" xmlns="http://www.w3.org/2000/svg" version="1.2" baseProfile="tiny"><desc>generated with github.com/xyproto/wann</desc><rect fill="white" stroke="black" x="5" y="5" rx="30" ry="30" width="146" height="128" /><line x1="75" y1="25" x2="131" y2="69" stroke-width="2" stroke="#0099ff" /><circle fill="lightblue" stroke="black" cx="75" cy="25" r="10" /><polyline points="73,16.500000 73.200000,17.700000 73.400000,18.900000 73.600000,20.100000 73.800000,21.300000 74,22.500000 74.200000,23.700000 74.400000,24.900000 74.600000,26.100000 74.800000,27.300000 75,28.500000 75.200000,27.300000 75.400000,26.100000 75.600000,24.900000 75.800000,23.700000 76,22.500000 76.200000,21.300000 76.400000,20.100000 76.600000,18.900000 76.800000,17.700000 77,16.500000" stroke="black" fill="none" /><line stroke-width="2" stroke="#0099ff" x1="75" y1="49" x2="131" y2="69" /><circle cx="75" cy="49" r="10" fill="lightblue" stroke="black" /><polyline points="73.600000,57.812110 73.800000,57.501928 74,57.069565 74.200000,56.484221 74.400000,55.722297 74.600000,54.779694 74.800000,53.684252 75,52.500000 75.200000,51.315748 75.400000,50.220306 75.600000,49.277703 75.800000,48.515779 76,47.930435 76.200000,47.498072 76.400000,47.187890 76.600000,46.969989 76.800000,46.819164 77,46.715835 77.200000,46.645541 77.400000,46.597951 77.600000,46.565836 77.800000,46.544211 78,46.529671 78.200000,46.519906 78.400000,46.513350 78.600000,46.508952 78.800000,46.506002 79,46.504024 79.200000,46.502698 79.400000,46.501809 79.600000,46.501212 79.800000,46.500813" stroke="black" fill="none" /><line stroke-width="2" stroke="orange" x1="25" y1="25" x2="75" y2="73" /><line y1="73" x2="131" y2="69" stroke-width="2" stroke="#0099ff" x1="75" /><circle cx="75" cy="73" r="10" fill="lightblue" stroke="black" /><polyline fill="none" points="70,76.710631 70.200000,76.745675 70.400000,76.786001 70.600000,76.832234 70.800000,76.885016 71,76.944977 71.200000,77.012704 71.400000,77.088687 71.600000,77.173246 71.800000,77.266445 72,77.367962 72.200000,77.476940 72.400000,77.591801 72.600000,77.710021 72.800000,77.827890 73,77.940256 73.200000,78.040291 73.400000,78.119315 73.600000,78.166745 73.800000,78.170215 74,78.115948 74.200000,77.989404 74.400000,77.776216 74.600000,77.463330 74.800000,77.040222 75,76.500000 75.200000,75.840176 75.400000,75.062969 75.600000,74.175057 75.800000,73.186837 76,72.111340 76.200000,70.963011 76.400000,69.756540 76.600000,68.505898 76.800000,67.223652 77,65.920570 77.200000,64.605479" stroke="black" /><circle r="10" fill="lightgreen" stroke="black" cx="25" cy="25" /><polyline points="20,28.710631 20.200000,28.745675 20.400000,28.786001 20.600000,28.832234 20.800000,28.885016 21,28.944977 21.200000,29.012704 21.400000,29.088687 21.600000,29.173246 21.800000,29.266445 22,29.367962 22.200000,29.476940 22.400000,29.591801 22.600000,29.710021 22.800000,29.827890 23,29.940256 23.200000,30.040291 23.400000,30.119315 23.600000,30.166745 23.800000,30.170215 24,30.115948 24.200000,29.989404 24.400000,29.776216 24.600000,29.463330 24.800000,29.040222 25,28.500000 25.200000,27.840176 25.400000,27.062969 25.600000,26.175057 25.800000,25.186837 26,24.111340 26.200000,22.963011 26.400000,21.756540 26.600000,20.505898 26.800000,19.223652 27,17.920570 27.200000,16.605479" stroke="black" fill="none" /><circle cy="70" r="10" fill="magenta" stroke="black" cx="132" /></svg>