<?xml version="1.0" encoding="UTF-8"?><svg width="138px" height="138px" xmlns="http://www.w3.org/2000/svg" version="1.2" baseProfile="tiny" viewBox="0 0 138 138"><desc>generated with github.com/xyproto/wann</desc><rect y="5" rx="30" ry="30" width="128" height="128" fill="white" stroke="black" x="5" /><line stroke-width="2" stroke="#0099ff" x1="25" y1="25" x2="113" y2="69" /><circle cx="25" cy="25" r="10" fill="lightblue" stroke="black" /><polyline points="20,28.710631 20.200000,28.745675 20.400000,28.786001 20.600000,28.832234 20.800000,28.885016 21,28.944977 21.200000,29.012704 21.400000,29.088687 21.600000,29.173246 21.800000,29.266445 22,29.367962 22.200000,29.476940 22.400000,29.591801 22.600000,29.710021 22.800000,29.827890 23,29.940256 23.200000,30.040291 23.400000,30.119315 23.600000,30.166745 23.800000,30.170215 24,30.115948 24.200000,29.989404 24.400000,29.776216 24.600000,29.463330 24.800000,29.040222 25,28.500000 25.200000,27.840176 25.400000,27.062969 25.600000,26.175057 25.800000,25.186837 26,24.111340 26.200000,22.963011 26.400000,21.756540 26.600000,20.505898 26.800000,19.223652 27,17.920570 27.200000,16.605479" stroke="black" fill="none" /><line x1="25" y1="49" x2="113" y2="69" stroke-width="2" stroke="#0099ff" /><circle cx="25" cy="49" r="10" fill="lightblue" stroke="black" /><polyline points="23,40.500000 23.200000,41.700000 23.400000,42.900000 23.600000,44.100000 23.800000,45.300000 24,46.500000 24.200000,47.700000 24.400000,48.900000 24.600000,50.100000 24.800000,51.300000 25,52.500000 25.200000,51.300000 25.400000,50.100000 25.600000,48.900000 25.800000,47.700000 26,46.500000 26.200000,45.300000 26.400000,44.100000 26.600000,42.900000 26.800000,41.700000 27,40.500000" stroke="black" fill="none" /><line stroke="#0099ff" x1="25" y1="73" x2="113" y2="69" stroke-width="2" /><circle cx="25" cy="73" r="10" fill="lightblue" stroke="black" /><polyline points="23.600000,81.812110 23.800000,81.501928 24,81.069565 24.200000,80.484221 24.400000,79.722297 24.600000,78.779694 24.800000,77.684252 25,76.500000 25.200000,75.315748 25.400000,74.220306 25.600000,73.277703 25.800000,72.515779 26,71.930435 26.200000,71.498072 26.400000,71.187890 26.600000,70.969989 26.800000,70.819164 27,70.715835 27.200000,70.645541 27.400000,70.597951 27.600000,70.565836 27.800000,70.544211 28,70.529671 28.200000,70.519906 28.400000,70.513350 28.600000,70.508952 28.800000,70.506002 29,70.504024 29.200000,70.502698 29.400000,70.501809 29.600000,70.501212 29.800000,70.500813 30,70.500545" stroke="black" fill="none" /><circle cx="114" cy="70" r="10" fill="magenta" stroke="black" /></svg>