<?xml version="1.0" encoding="UTF-8"?><svg xmlns="http://www.w3.org/2000/svg" version="1.2" baseProfile="tiny" viewBox="0 0 138 170" width="138px" height="170px"><desc>generated with github.com/xyproto/wann</desc><rect fill="white" stroke="black" x="5" y="5" rx="30" ry="30" width="128" height="160" /><line y2="85" stroke-width="2" stroke="#0099ff" x1="25" y1="25" x2="113" /><circle cx="25" cy="25" r="10" fill="lightblue" stroke="black" /><polyline fill="none" points="20,28.500000 20.200000,28.500000 20.400000,28.500000 20.600000,28.500000 20.800000,28.500000 21,28.500000 21.200000,28.500000 21.400000,28.500000 21.600000,28.500000 21.800000,28.500000 22,28.500000 22.200000,28.500000 22.400000,28.500000 22.600000,28.500000 22.800000,28.500000 23,28.500000 23.200000,28.500000 23.400000,28.500000 23.600000,28.500000 23.800000,28.500000 24,28.500000 24.200000,28.500000 24.400000,28.500000 24.600000,28.500000 24.800000,28.500000 25,28.500000 25.200000,27.300000 25.400000,26.100000 25.600000,24.900000 25.800000,23.700000 26,22.500000 26.200000,21.300000 26.400000,20.100000 26.600000,18.900000 26.800000,17.700000 27,16.500000" stroke="black" /><circle fill="magenta" stroke="black" cx="114" cy="86" r="10" /></svg>