<?xml version="1.0" encoding="UTF-8"?><svg xmlns="http://www.w3.org/2000/svg" version="1.2" baseProfile="tiny" viewBox="0 0 138 140" width="138px" height="140px"><desc>generated with github.com/xyproto/wann</desc><rect rx="30" ry="30" width="128" height="130" fill="white" stroke="black" x="5" y="5" /><line stroke="#0099ff" x1="25" y1="25" x2="113" y2="70" stroke-width="2" /><circle fill="lightblue" stroke="black" cx="25" cy="25" r="10" /><rect width="30" height="6" fill="black" x="16" y="35" /><text x="16" y="40" font-family="Courier" font-size="8" fill="white">Linear</text><rect x="16" y="35" width="30" height="6" fill="black" /><text x="16" y="40" font-family="Courier" font-size="8" fill="white">Linear</text><rect x="16" y="35" width="30" height="6" fill="black" /><text fill="white" x="16" y="40" font-family="Courier" font-size="8">Linear</text><rect x="16" y="35" width="30" height="6" fill="black" /><text x="16" y="40" font-family="Courier" font-size="8" fill="white">Linear</text><rect x="16" y="35" width="30" height="6" fill="black" /><text x="16" y="40" font-family="Courier" font-size="8" fill="white">Linear</text><rect x="16" y="35" width="30" height="6" fill="black" /><text x="16" y="40" font-family="Courier" font-size="8" fill="white">Linear</text><rect x="16" y="35" width="30" height="6" fill="black" /><text font-family="Courier" font-size="8" fill="white" x="16" y="40">Linear</text><rect x="16" y="35" width="30" height="6" fill="black" /><text fill="white" x="16" y="40" font-family="Courier" font-size="8">Linear</text><rect x="16" y="35" width="30" height="6" fill="black" /><text x="16" y="40" font-family="Courier" font-size="8" fill="white">Linear</text><rect width="30" height="6" fill="black" x="16" y="35" /><text font-family="Courier" font-size="8" fill="white" x="16" y="40">Linear</text><rect x="16" y="35" width="30" height="6" fill="black" /><text font-size="8" fill="white" x="16" y="40" font-family="Courier">Linear</text><rect width="30" height="6" fill="black" x="16" y="35" /><text x="16" y="40" font-family="Courier" font-size="8" fill="white">Linear</text><rect x="16" y="35" width="30" height="6" fill="black" /><text x="16" y="40" font-family="Courier" font-size="8" fill="white">Linear</text><rect fill="black" x="16" y="35" width="30" height="6" /><text font-size="8" fill="white" x="16" y="40" font-family="Courier">Linear</text><rect width="30" height="6" fill="black" x="16" y="35" /><text x="16" y="40" font-family="Courier" font-size="8" fill="white">Linear</text><polyline points="24.200000,33.300000 24.400000,32.100000 24.600000,30.900000 24.800000,29.700000 25,28.500000 25.200000,27.300000 25.400000,26.100000 25.600000,24.900000 25.800000,23.700000 26,22.500000 26.200000,21.300000 26.400000,20.100000 26.600000,18.900000 26.800000,17.700000 27,16.500000" stroke="black" fill="none" /><circle cx="114" cy="71" r="10" fill="magenta" stroke="black" /><rect width="30" height="6" fill="black" x="98" y="81" /><text x="98" y="86" font-family="Courier" font-size="8" fill="white">Output</text></svg>