<?xml version="1.0" encoding="UTF-8"?><svg xmlns="http://www.w3.org/2000/svg" version="1.2" baseProfile="tiny" viewBox="0 0 138 140" width="138px" height="140px"><desc>generated with github.com/xyproto/wann</desc><rect x="5" y="5" rx="30" ry="30" width="128" height="130" fill="white" stroke="black" /><line x1="25" y1="25" x2="113" y2="70" stroke-width="2" stroke="#0099ff" /><circle cx="25" cy="25" r="10" fill="lightblue" stroke="black" /><rect height="6" fill="black" x="16" y="35" width="45" /><text x="16" y="40" font-family="Courier" font-size="8" fill="white">Swish [2]</text><rect x="16" y="35" width="45" height="6" fill="black" /><text x="16" y="40" font-family="Courier" font-size="8" fill="white">Swish [2]</text><rect x="16" y="35" width="45" height="6" fill="black" /><text fill="white" x="16" y="40" font-family="Courier" font-size="8">Swish [2]</text><rect x="16" y="35" width="45" height="6" fill="black" /><text x="16" y="40" font-family="Courier" font-size="8" fill="white">Swish [2]</text><rect x="16" y="35" width="45" height="6" fill="black" /><text font-family="Courier" font-size="8" fill="white" x="16" y="40">Swish [2]</text><rect y="35" width="45" height="6" fill="black" x="16" /><text fill="white" x="16" y="40" font-family="Courier" font-size="8">Swish [2]</text><rect fill="black" x="16" y="35" width="45" height="6" /><text x="16" y="40" font-family="Courier" font-size="8" fill="white">Swish [2]</text><rect x="16" y="35" width="45" height="6" fill="black" /><text x="16" y="40" font-family="Courier" font-size="8" fill="white">Swish [2]</text><rect x="16" y="35" width="45" height="6" fill="black" /><text fill="white" x="16" y="40" font-family="Courier" font-size="8">Swish [2]</text><rect height="6" fill="black" x="16" y="35" width="45" /><text x="16" y="40" font-family="Courier" font-size="8" fill="white">Swish [2]</text><rect x="16" y="35" width="45" height="6" fill="black" /><text x="16" y="40" font-family="Courier" font-size="8" fill="white">Swish [2]</text><rect fill="black" x="16" y="35" width="45" height="6" /><text fill="white" x="16" y="40" font-family="Courier" font-size="8">Swish [2]</text><rect x="16" y="35" width="45" height="6" fill="black" /><text x="16" y="40" font-family="Courier" font-size="8" fill="white">Swish [2]</text><rect y="35" width="45" height="6" fill="black" x="16" /><text font-size="8" fill="white" x="16" y="40" font-family="Courier">Swish [2]</text><rect x="16" y="35" width="45" height="6" fill="black" /><text x="16" y="40" font-family="Courier" font-size="8" fill="white">Swish [2]</text><rect fill="black" x="16" y="35" width="45" height="6" /><text x="16" y="40" font-family="Courier" font-size="8" fill="white">Swish [2]</text><rect x="16" y="35" width="45" height="6" fill="black" /><text y="40" font-family="Courier" font-size="8" fill="white" x="16">Swish [2]</text><rect fill="black" x="16" y="35" width="45" height="6" /><text x="16" y="40" font-family="Courier" font-size="8" fill="white">Swish [2]</text><rect x="16" y="35" width="45" height="6" fill="black" /><text font-size="8" fill="white" x="16" y="40" font-family="Courier">Swish [2]</text><rect y="35" width="45" height="6" fill="black" x="16" /><text x="16" y="40" font-family="Courier" font-size="8" fill="white">Swish [2]</text><rect x="16" y="35" width="45" height="6" fill="black" /><text y="40" font-family="Courier" font-size="8" fill="white" x="16">Swish [2]</text><rect x="16" y="35" width="45" height="6" fill="black" /><text font-size="8" fill="white" x="16" y="40" font-family="Courier">Swish [2]</text><rect y="35" width="45" height="6" fill="black" x="16" /><text x="16" y="40" font-family="Courier" font-size="8" fill="white">Swish [2]</text><rect height="6" fill="black" x="16" y="35" width="45" /><text x="16" y="40" font-family="Courier" font-size="8" fill="white">Swish [2]</text><rect width="45" height="6" fill="black" x="16" y="35" /><text fill="white" x="16" y="40" font-family="Courier" font-size="8">Swish [2]</text><rect height="6" fill="black" x="16" y="35" width="45" /><text font-family="Courier" font-size="8" fill="white" x="16" y="40">Swish [2]</text><rect fill="black" x="16" y="35" width="45" height="6" /><text x="16" y="40" font-family="Courier" font-size="8" fill="white">Swish [2]</text><rect height="6" fill="black" x="16" y="35" width="45" /><text font-size="8" fill="white" x="16" y="40" font-family="Courier">Swish [2]</text><rect width="45" height="6" fill="black" x="16" y="35" /><text y="40" font-family="Courier" font-size="8" fill="white" x="16">Swish [2]</text><rect width="45" height="6" fill="black" x="16" y="35" /><text x="16" y="40" font-family="Courier" font-size="8" fill="white">Swish [2]</text><rect fill="black" x="16" y="35" width="45" height="6" /><text x="16" y="40" font-family="Courier" font-size="8" fill="white">Swish [2]</text><rect y="35" width="45" height="6" fill="black" x="16" /><text font-size="8" fill="white" x="16" y="40" font-family="Courier">Swish [2]</text><rect x="16" y="35" width="45" height="6" fill="black" /><text y="40" font-family="Courier" font-size="8" fill="white" x="16">Swish [2]</text><rect x="16" y="35" width="45" height="6" fill="black" /><text x="16" y="40" font-family="Courier" font-size="8" fill="white">Swish [2]</text><rect x="16" y="35" width="45" height="6" fill="black" /><text x="16" y="40" font-family="Courier" font-size="8" fill="white">Swish [2]</text><rect fill="black" x="16" y="35" width="45" height="6" /><text x="16" y="40" font-family="Courier" font-size="8" fill="white">Swish [2]</text><rect x="16" y="35" width="45" height="6" fill="black" /><text x="16" y="40" font-family="Courier" font-size="8" fill="white">Swish [2]</text><polyline points="20,28.710631 20.200000,28.745675 20.400000,28.786001 20.600000,28.832234 20.800000,28.885016 21,28.944977 21.200000,29.012704 21.400000,29.088687 21.600000,29.173246 21.800000,29.266445 22,29.367962 22.200000,29.476940 22.400000,29.591801 22.600000,29.710021 22.800000,29.827890 23,29.940256 23.200000,30.040291 23.400000,30.119315 23.600000,30.166745 23.800000,30.170215 24,30.115948 24.200000,29.989404 24.400000,29.776216 24.600000,29.463330 24.800000,29.040222 25,28.500000 25.200000,27.840176 25.400000,27.062969 25.600000,26.175057 25.800000,25.186837 26,24.111340 26.200000,22.963011 26.400000,21.756540 26.600000,20.505898 26.800000,19.223652 27,17.920570 27.200000,16.605479" stroke="black" fill="none" /><circle cx="114" cy="71" r="10" fill="magenta" stroke="black" /><rect x="98" y="81" width="60" height="6" fill="black" /><text font-size="8" fill="white" x="98" y="86" font-family="Courier">Inverted [o]</text></svg>