<?xml version="1.0" encoding="UTF-8"?><svg xmlns="http://www.w3.org/2000/svg" version="1.2" baseProfile="tiny" viewBox="0 0 138 140" width="138px" height="140px"><desc>generated with github.com/xyproto/wann</desc><rect y="5" rx="30" ry="30" width="128" height="130" fill="white" stroke="black" x="5" /><line y2="70" stroke-width="2" stroke="#0099ff" x1="25" y1="25" x2="113" /><circle cy="25" r="10" fill="lightblue" stroke="black" cx="25" /><rect x="16" y="35" width="20" height="6" fill="black" /><text fill="white" x="16" y="40" font-family="Courier" font-size="8">ReLU</text><rect x="16" y="35" width="20" height="6" fill="black" /><text fill="white" x="16" y="40" font-family="Courier" font-size="8">ReLU</text><rect y="35" width="20" height="6" fill="black" x="16" /><text fill="white" x="16" y="40" font-family="Courier" font-size="8">ReLU</text><rect x="16" y="35" width="20" height="6" fill="black" /><text y="40" font-family="Courier" font-size="8" fill="white" x="16">ReLU</text><rect x="16" y="35" width="20" height="6" fill="black" /><text fill="white" x="16" y="40" font-family="Courier" font-size="8">ReLU</text><rect fill="black" x="16" y="35" width="20" height="6" /><text y="40" font-family="Courier" font-size="8" fill="white" x="16">ReLU</text><rect y="35" width="20" height="6" fill="black" x="16" /><text fill="white" x="16" y="40" font-family="Courier" font-size="8">ReLU</text><rect y="35" width="20" height="6" fill="black" x="16" /><text x="16" y="40" font-family="Courier" font-size="8" fill="white">ReLU</text><rect x="16" y="35" width="20" height="6" fill="black" /><text y="40" font-family="Courier" font-size="8" fill="white" x="16">ReLU</text><rect height="6" fill="black" x="16" y="35" width="20" /><text x="16" y="40" font-family="Courier" font-size="8" fill="white">ReLU</text><rect fill="black" x="16" y="35" width="20" height="6" /><text x="16" y="40" font-family="Courier" font-size="8" fill="white">ReLU</text><rect x="16" y="35" width="20" height="6" fill="black" /><text x="16" y="40" font-family="Courier" font-size="8" fill="white">ReLU</text><rect y="35" width="20" height="6" fill="black" x="16" /><text x="16" y="40" font-family="Courier" font-size="8" fill="white">ReLU</text><rect x="16" y="35" width="20" height="6" fill="black" /><text font-size="8" fill="white" x="16" y="40" font-family="Courier">ReLU</text><rect height="6" fill="black" x="16" y="35" width="20" /><text fill="white" x="16" y="40" font-family="Courier" font-size="8">ReLU</text><rect x="16" y="35" width="20" height="6" fill="black" /><text y="40" font-family="Courier" font-size="8" fill="white" x="16">ReLU</text><rect x="16" y="35" width="20" height="6" fill="black" /><text x="16" y="40" font-family="Courier" font-size="8" fill="white">ReLU</text><rect fill="black" x="16" y="35" width="20" height="6" /><text x="16" y="40" font-family="Courier" font-size="8" fill="white">ReLU</text><rect x="16" y="35" width="20" height="6" fill="black" /><text x="16" y="40" font-family="Courier" font-size="8" fill="white">ReLU</text><rect fill="black" x="16" y="35" width="20" height="6" /><text x="16" y="40" font-family="Courier" font-size="8" fill="white">ReLU</text><rect x="16" y="35" width="20" height="6" fill="black" /><text fill="white" x="16" y="40" font-family="Courier" font-size="8">ReLU</text><rect x="16" y="35" width="20" height="6" fill="black" /><text font-size="8" fill="white" x="16" y="40" font-family="Courier">ReLU</text><rect x="16" y="35" width="20" height="6" fill="black" /><text fill="white" x="16" y="40" font-family="Courier" font-size="8">ReLU</text><rect x="16" y="35" width="20" height="6" fill="black" /><text font-family="Courier" font-size="8" fill="white" x="16" y="40">ReLU</text><rect x="16" y="35" width="20" height="6" fill="black" /><text x="16" y="40" font-family="Courier" font-size="8" fill="white">ReLU</text><rect fill="black" x="16" y="35" width="20" height="6" /><text font-size="8" fill="white" x="16" y="40" font-family="Courier">ReLU</text><rect fill="black" x="16" y="35" width="20" height="6" /><text font-family="Courier" font-size="8" fill="white" x="16" y="40">ReLU</text><rect x="16" y="35" width="20" height="6" fill="black" /><text x="16" y="40" font-family="Courier" font-size="8" fill="white">ReLU</text><rect x="16" y="35" width="20" height="6" fill="black" /><text x="16" y="40" font-family="Courier" font-size="8" fill="white">ReLU</text><rect x="16" y="35" width="20" height="6" fill="black" /><text x="16" y="40" font-family="Courier" font-size="8" fill="white">ReLU</text><rect x="16" y="35" width="20" height="6" fill="black" /><text font-size="8" fill="white" x="16" y="40" font-family="Courier">ReLU</text><rect height="6" fill="black" x="16" y="35" width="20" /><text font-size="8" fill="white" x="16" y="40" font-family="Courier">ReLU</text><rect width="20" height="6" fill="black" x="16" y="35" /><text fill="white" x="16" y="40" font-family="Courier" font-size="8">ReLU</text><rect x="16" y="35" width="20" height="6" fill="black" /><text x="16" y="40" font-family="Courier" font-size="8" fill="white">ReLU</text><rect fill="black" x="16" y="35" width="20" height="6" /><text x="16" y="40" font-family="Courier" font-size="8" fill="white">ReLU</text><rect x="16" y="35" width="20" height="6" fill="black" /><text font-size="8" fill="white" x="16" y="40" font-family="Courier">ReLU</text><polyline points="20,28.500000 20.200000,28.500000 20.400000,28.500000 20.600000,28.500000 20.800000,28.500000 21,28.500000 21.200000,28.500000 21.400000,28.500000 21.600000,28.500000 21.800000,28.500000 22,28.500000 22.200000,28.500000 22.400000,28.500000 22.600000,28.500000 22.800000,28.500000 23,28.500000 23.200000,28.500000 23.400000,28.500000 23.600000,28.500000 23.800000,28.500000 24,28.500000 24.200000,28.500000 24.400000,28.500000 24.600000,28.500000 24.800000,28.500000 25,28.500000 25.200000,27.300000 25.400000,26.100000 25.600000,24.900000 25.800000,23.700000 26,22.500000 26.200000,21.300000 26.400000,20.100000 26.600000,18.900000 26.800000,17.700000 27,16.500000" stroke="black" fill="none" /><circle cx="114" cy="71" r="10" fill="magenta" stroke="black" /><rect height="6" fill="black" x="98" y="81" width="30" /><text font-size="8" fill="white" x="98" y="86" font-family="Courier">Output</text></svg>