<?xml version="1.0" encoding="UTF-8"?><svg baseProfile="tiny" viewBox="0 0 138 140" width="138px" height="140px" xmlns="http://www.w3.org/2000/svg" version="1.2"><desc>generated with github.com/xyproto/wann</desc><rect x="5" y="5" rx="30" ry="30" width="128" height="130" fill="white" stroke="black" /><line x1="25" y1="25" x2="113" y2="70" stroke-width="2" stroke="#0099ff" /><circle stroke="black" cx="25" cy="25" r="10" fill="lightblue" /><rect height="6" fill="black" x="16" y="35" width="40" /><text fill="white" x="16" y="40" font-family="Courier" font-size="8">Gaussian</text><rect fill="black" x="16" y="35" width="40" height="6" /><text x="16" y="40" font-family="Courier" font-size="8" fill="white">Gaussian</text><rect height="6" fill="black" x="16" y="35" width="40" /><text fill="white" x="16" y="40" font-family="Courier" font-size="8">Gaussian</text><rect x="16" y="35" width="40" height="6" fill="black" /><text x="16" y="40" font-family="Courier" font-size="8" fill="white">Gaussian</text><rect width="40" height="6" fill="black" x="16" y="35" /><text y="40" font-family="Courier" font-size="8" fill="white" x="16">Gaussian</text><rect x="16" y="35" width="40" height="6" fill="black" /><text font-size="8" fill="white" x="16" y="40" font-family="Courier">Gaussian</text><rect x="16" y="35" width="40" height="6" fill="black" /><text x="16" y="40" font-family="Courier" font-size="8" fill="white">Gaussian</text><rect x="16" y="35" width="40" height="6" fill="black" /><text x="16" y="40" font-family="Courier" font-size="8" fill="white">Gaussian</text><rect x="16" y="35" width="40" height="6" fill="black" /><text font-size="8" fill="white" x="16" y="40" font-family="Courier">Gaussian</text><rect x="16" y="35" width="40" height="6" fill="black" /><text font-size="8" fill="white" x="16" y="40" font-family="Courier">Gaussian</text><rect x="16" y="35" width="40" height="6" fill="black" /><text font-family="Courier" font-size="8" fill="white" x="16" y="40">Gaussian</text><rect width="40" height="6" fill="black" x="16" y="35" /><text x="16" y="40" font-family="Courier" font-size="8" fill="white">Gaussian</text><rect x="16" y="35" width="40" height="6" fill="black" /><text x="16" y="40" font-family="Courier" font-size="8" fill="white">Gaussian</text><rect x="16" y="35" width="40" height="6" fill="black" /><text x="16" y="40" font-family="Courier" font-size="8" fill="white">Gaussian</text><rect y="35" width="40" height="6" fill="black" x="16" /><text x="16" y="40" font-family="Courier" font-size="8" fill="white">Gaussian</text><rect height="6" fill="black" x="16" y="35" width="40" /><text y="40" font-family="Courier" font-size="8" fill="white" x="16">Gaussian</text><rect fill="black" x="16" y="35" width="40" height="6" /><text font-family="Courier" font-size="8" fill="white" x="16" y="40">Gaussian</text><rect fill="black" x="16" y="35" width="40" height="6" /><text font-family="Courier" font-size="8" fill="white" x="16" y="40">Gaussian</text><rect x="16" y="35" width="40" height="6" fill="black" /><text y="40" font-family="Courier" font-size="8" fill="white" x="16">Gaussian</text><rect x="16" y="35" width="40" height="6" fill="black" /><text y="40" font-family="Courier" font-size="8" fill="white" x="16">Gaussian</text><rect fill="black" x="16" y="35" width="40" height="6" /><text x="16" y="40" font-family="Courier" font-size="8" fill="white">Gaussian</text><rect x="16" y="35" width="40" height="6" fill="black" /><text y="40" font-family="Courier" font-size="8" fill="white" x="16">Gaussian</text><rect x="16" y="35" width="40" height="6" fill="black" /><text fill="white" x="16" y="40" font-family="Courier" font-size="8">Gaussian</text><rect height="6" fill="black" x="16" y="35" width="40" /><text x="16" y="40" font-family="Courier" font-size="8" fill="white">Gaussian</text><rect y="35" width="40" height="6" fill="black" x="16" /><text x="16" y="40" font-family="Courier" font-size="8" fill="white">Gaussian</text><rect x="16" y="35" width="40" height="6" fill="black" /><text x="16" y="40" font-family="Courier" font-size="8" fill="white">Gaussian</text><rect x="16" y="35" width="40" height="6" fill="black" /><text fill="white" x="16" y="40" font-family="Courier" font-size="8">Gaussian</text><rect x="16" y="35" width="40" height="6" fill="black" /><text fill="white" x="16" y="40" font-family="Courier" font-size="8">Gaussian</text><rect x="16" y="35" width="40" height="6" fill="black" /><text x="16" y="40" font-family="Courier" font-size="8" fill="white">Gaussian</text><rect x="16" y="35" width="40" height="6" fill="black" /><text x="16" y="40" font-family="Courier" font-size="8" fill="white">Gaussian</text><rect x="16" y="35" width="40" height="6" fill="black" /><text x="16" y="40" font-family="Courier" font-size="8" fill="white">Gaussian</text><rect y="35" width="40" height="6" fill="black" x="16" /><text y="40" font-family="Courier" font-size="8" fill="white" x="16">Gaussian</text><rect x="16" y="35" width="40" height="6" fill="black" /><text x="16" y="40" font-family="Courier" font-size="8" fill="white">Gaussian</text><rect x="16" y="35" width="40" height="6" fill="black" /><text font-size="8" fill="white" x="16" y="40" font-family="Courier">Gaussian</text><rect x="16" y="35" width="40" height="6" fill="black" /><text y="40" font-family="Courier" font-size="8" fill="white" x="16">Gaussian</text><rect x="16" y="35" width="40" height="6" fill="black" /><text x="16" y="40" font-family="Courier" font-size="8" fill="white">Gaussian</text><rect x="16" y="35" width="40" height="6" fill="black" /><text fill="white" x="16" y="40" font-family="Courier" font-size="8">Gaussian</text><rect fill="black" x="16" y="35" width="40" height="6" /><text x="16" y="40" font-family="Courier" font-size="8" fill="white">Gaussian</text><rect x="16" y="35" width="40" height="6" fill="black" /><text font-size="8" fill="white" x="16" y="40" font-family="Courier">Gaussian</text><rect x="16" y="35" width="40" height="6" fill="black" /><text x="16" y="40" font-family="Courier" font-size="8" fill="white">Gaussian</text><rect x="16" y="35" width="40" height="6" fill="black" /><text font-family="Courier" font-size="8" fill="white" x="16" y="40">Gaussian</text><rect x="16" y="35" width="40" height="6" fill="black" /><text x="16" y="40" font-family="Courier" font-size="8" fill="white">Gaussian</text><rect x="16" y="35" width="40" height="6" fill="black" /><text font-size="8" fill="white" x="16" y="40" font-family="Courier">Gaussian</text><rect height="6" fill="black" x="16" y="35" width="40" /><text x="16" y="40" font-family="Courier" font-size="8" fill="white">Gaussian</text><rect fill="black" x="16" y="35" width="40" height="6" /><text y="40" font-family="Courier" font-size="8" fill="white" x="16">Gaussian</text><rect x="16" y="35" width="40" height="6" fill="black" /><text x="16" y="40" font-family="Courier" font-size="8" fill="white">Gaussian</text><rect fill="black" x="16" y="35" width="40" height="6" /><text x="16" y="40" font-family="Courier" font-size="8" fill="white">Gaussian</text><rect width="40" height="6" fill="black" x="16" y="35" /><text y="40" font-family="Courier" font-size="8" fill="white" x="16">Gaussian</text><rect x="16" y="35" width="40" height="6" fill="black" /><text y="40" font-family="Courier" font-size="8" fill="white" x="16">Gaussian</text><rect fill="black" x="16" y="35" width="40" height="6" /><text x="16" y="40" font-family="Courier" font-size="8" fill="white">Gaussian</text><rect x="16" y="35" width="40" height="6" fill="black" /><text x="16" y="40" font-family="Courier" font-size="8" fill="white">Gaussian</text><polyline points="20,28.499984 20.200000,28.499954 20.400000,28.499878 20.600000,28.499689 20.800000,28.499241 21,28.498228 21.200000,28.496042 21.400000,28.491534 21.600000,28.482656 21.800000,28.465957 22,28.435961 22.200000,28.384509 22.400000,28.300263 22.600000,28.168644 22.800000,27.972576 23,27.694340 23.200000,27.318704 23.400000,26.837124 23.600000,26.252364 23.800000,25.582448 24,24.862595 24.200000,24.143978 24.400000,23.488696 24.600000,22.961371 24.800000,22.618813 25,22.500000 25.200000,22.618813 25.400000,22.961371 25.600000,23.488696 25.800000,24.143978 26,24.862595 26.200000,25.582448 26.400000,26.252364 26.600000,26.837124 26.800000,27.318704 27,27.694340 27.200000,27.972576 27.400000,28.168644 27.600000,28.300263 27.800000,28.384509 28,28.435961 28.200000,28.465957 28.400000,28.482656 28.600000,28.491534 28.800000,28.496042 29,28.498228 29.200000,28.499241 29.400000,28.499689 29.600000,28.499878 29.800000,28.499954 30,28.499984" stroke="black" fill="none" /><circle cx="114" cy="71" r="10" fill="magenta" stroke="black" /><rect fill="black" x="98" y="81" width="30" height="6" /><text x="98" y="86" font-family="Courier" font-size="8" fill="white">Output</text></svg>