<?xml version="1.0" encoding="UTF-8"?><svg xmlns="http://www.w3.org/2000/svg" version="1.2" baseProfile="tiny" viewBox="0 0 138 170" width="138px" height="170px"><desc>generated with github.com/xyproto/wann</desc><rect width="128" height="160" fill="white" stroke="black" x="5" y="5" rx="30" ry="30" /><line x1="25" y1="25" x2="113" y2="85" stroke-width="2" stroke="#0099ff" /><circle cx="25" cy="25" r="10" fill="lightblue" stroke="black" /><polyline points="20,28.457874 20.200000,28.448818 20.400000,28.437826 20.600000,28.424492 20.800000,28.408330 21,28.388756 21.200000,28.365078 21.400000,28.336476 21.600000,28.301986 21.800000,28.260486 22,28.210679 22.200000,28.151093 22.400000,28.080077 22.600000,27.995825 22.800000,27.896414 23,27.779872 23.200000,27.644283 23.400000,27.487928 23.600000,27.309468 23.800000,27.108154 24,26.884052 24.200000,26.638246 24.400000,26.372974 24.600000,26.091676 24.800000,25.798888 25,25.500000 25.200000,25.200880 25.400000,24.907423 25.600000,24.625096 25.800000,24.358546 26,24.111340 26.200000,23.885842 26.400000,23.683243 26.600000,23.503686 26.800000,23.346473 27,23.210285 27.200000,23.093400 27.400000,22.993881 27.600000,22.909727 27.800000,22.838978 28,22.779791 28.200000,22.730483 28.400000,22.689546 28.600000,22.655660 28.800000,22.627679 29,22.604621 29.200000,22.585653 29.400000,22.570071 29.600000,22.557288 29.800000,22.546811 30,22.538231" stroke="black" fill="none" /><circle r="10" fill="magenta" stroke="black" cx="114" cy="86" /></svg>