<?xml version="1.0" encoding="UTF-8"?><svg width="756px" height="386px" xmlns="http://www.w3.org/2000/svg" version="1.2" baseProfile="tiny" viewBox="0 0 756 386"><desc>generated with github.com/xyproto/wann</desc><rect rx="30" ry="30" width="746" height="376" fill="white" stroke="black" x="5" y="5" /><circle cy="25" r="10" fill="lightgreen" stroke="black" cx="525" /><polyline stroke="black" fill="none" points="520,28.500000 520.200000,32.026712 520.800000,32.026712 521,28.500000 521.200000,24.973288 521.400000,22.793661 521.600000,22.793661 521.800000,24.973288 522,28.500000 522.200000,32.026712 522.800000,32.026712 523,28.500000 523.200000,24.973288 523.400000,22.793661 523.600000,22.793661 523.800000,24.973288 524,28.500000 524.200000,32.026712 524.800000,32.026712 525,28.500000 525.200000,24.973288 525.400000,22.793661 525.600000,22.793661 525.800000,24.973288 526,28.500000 526.200000,32.026712 526.800000,32.026712 527,28.500000 527.200000,24.973288 527.400000,22.793661 527.600000,22.793661 527.800000,24.973288 528,28.500000 528.200000,32.026712 528.800000,32.026712 529,28.500000 529.200000,24.973288 529.400000,22.793661 529.600000,22.793661 529.800000,24.973288" /><line x2="525" y2="49" stroke-width="2" stroke="orange" x1="475" y1="25" /><line x1="375" y1="121" x2="525" y2="49" stroke-width="2" stroke="orange" /><line y2="49" stroke-width="2" stroke="orange" x1="575" y1="25" x2="525" /><line y2="49" stroke-width="2" stroke="orange" x1="525" y1="25" x2="525" /><line stroke="orange" x1="475" y1="49" x2="525" y2="49" stroke-width="2" /><line stroke="orange" x1="425" y1="73" x2="525" y2="49" stroke-width="2" /><line x2="525" y2="49" stroke-width="2" stroke="orange" x1="425" y1="97" /><circle stroke="black" cx="525" cy="49" r="10" fill="lightgreen" /><polyline points="520.200000,57.354102 520.400000,54.354102 520.600000,50.645898 520.800000,47.645898 521,46.500000 521.200000,47.645898 521.400000,50.645898 521.600000,54.354102 521.800000,57.354102 522.200000,57.354102 522.400000,54.354102 522.600000,50.645898 522.800000,47.645898 523,46.500000 523.200000,47.645898 523.400000,50.645898 523.600000,54.354102 523.800000,57.354102 524.200000,57.354102 524.400000,54.354102 524.600000,50.645898 524.800000,47.645898 525,46.500000 525.200000,47.645898 525.400000,50.645898 525.600000,54.354102 525.800000,57.354102 526.200000,57.354102 526.400000,54.354102 526.600000,50.645898 526.800000,47.645898 527,46.500000 527.200000,47.645898 527.400000,50.645898 527.600000,54.354102 527.800000,57.354102 528.200000,57.354102 528.400000,54.354102 528.600000,50.645898 528.800000,47.645898 529,46.500000 529.200000,47.645898 529.400000,50.645898 529.600000,54.354102 529.800000,57.354102" stroke="black" fill="none" /><line x2="525" y2="73" stroke-width="2" stroke="orange" x1="225" y1="97" /><line y2="73" stroke-width="2" stroke="orange" x1="475" y1="73" x2="525" /><circle cy="73" r="10" fill="lightgreen" stroke="black" cx="525" /><polyline fill="none" points="520,76.500000 520.200000,76.500000 520.400000,76.500000 520.600000,76.500000 520.800000,76.500000 521,76.500000 521.200000,76.500000 521.400000,76.500000 521.600000,76.500000 521.800000,76.500000 522,76.500000 522.200000,76.500000 522.400000,76.500000 522.600000,76.500000 522.800000,76.500000 523,76.500000 523.200000,76.500000 523.400000,76.500000 523.600000,76.500000 523.800000,76.500000 524,76.500000 524.200000,76.500000 524.400000,76.500000 524.600000,76.500000 524.800000,76.500000 525,76.500000 525.200000,75.300000 525.400000,74.100000 525.600000,72.900000 525.800000,71.700000 526,70.500000 526.200000,69.300000 526.400000,68.100000 526.600000,66.900000 526.800000,65.700000 527,64.500000" stroke="black" /><line x1="75" y1="73" x2="525" y2="97" stroke-width="2" stroke="orange" /><line stroke="orange" x1="475" y1="97" x2="525" y2="97" stroke-width="2" /><circle r="10" fill="lightgreen" stroke="black" cx="525" cy="97" /><polyline fill="none" points="520,100.500000 520.200000,100.500000 520.400000,100.500000 520.600000,100.500000 520.800000,100.500000 521,100.500000 521.200000,100.500000 521.400000,100.500000 521.600000,100.500000 521.800000,100.500000 522,100.500000 522.200000,100.500000 522.400000,100.500000 522.600000,100.500000 522.800000,100.500000 523,100.500000 523.200000,100.500000 523.400000,100.500000 523.600000,100.500000 523.800000,100.500000 524,100.500000 524.200000,100.500000 524.400000,100.500000 524.600000,100.500000 524.800000,100.500000 525,100.500000 525.200000,99.300000 525.400000,98.100000 525.600000,96.900000 525.800000,95.700000 526,94.500000 526.200000,93.300000 526.400000,92.100000 526.600000,90.900000 526.800000,89.700000 527,88.500000" stroke="black" /><line stroke-width="2" stroke="orange" x1="475" y1="121" x2="525" y2="121" /><line y1="145" x2="525" y2="121" stroke-width="2" stroke="orange" x1="475" /><circle cx="525" cy="121" r="10" fill="lightgreen" stroke="black" /><polyline points="523.600000,129.812110 523.800000,129.501928 524,129.069565 524.200000,128.484221 524.400000,127.722297 524.600000,126.779694 524.800000,125.684252 525,124.500000 525.200000,123.315748 525.400000,122.220306 525.600000,121.277703 525.800000,120.515779 526,119.930435 526.200000,119.498072 526.400000,119.187890 526.600000,118.969989 526.800000,118.819164 527,118.715835 527.200000,118.645541 527.400000,118.597951 527.600000,118.565836 527.800000,118.544211 528,118.529671 528.200000,118.519906 528.400000,118.513350 528.600000,118.508952 528.800000,118.506002 529,118.504024 529.200000,118.502698 529.400000,118.501809 529.600000,118.501212 529.800000,118.500813" stroke="black" fill="none" /><line x1="225" y1="49" x2="525" y2="145" stroke-width="2" stroke="orange" /><line x1="475" y1="121" x2="525" y2="145" stroke-width="2" stroke="orange" /><line x1="525" y1="73" x2="525" y2="145" stroke-width="2" stroke="orange" /><line x1="525" y1="145" x2="731" y2="193" stroke-width="2" stroke="#0099ff" /><circle cy="145" r="10" fill="lightgreen" stroke="black" cx="525" /><polyline points="520.200000,153.354102 520.400000,150.354102 520.600000,146.645898 520.800000,143.645898 521,142.500000 521.200000,143.645898 521.400000,146.645898 521.600000,150.354102 521.800000,153.354102 522.200000,153.354102 522.400000,150.354102 522.600000,146.645898 522.800000,143.645898 523,142.500000 523.200000,143.645898 523.400000,146.645898 523.600000,150.354102 523.800000,153.354102 524.200000,153.354102 524.400000,150.354102 524.600000,146.645898 524.800000,143.645898 525,142.500000 525.200000,143.645898 525.400000,146.645898 525.600000,150.354102 525.800000,153.354102 526.200000,153.354102 526.400000,150.354102 526.600000,146.645898 526.800000,143.645898 527,142.500000 527.200000,143.645898 527.400000,146.645898 527.600000,150.354102 527.800000,153.354102 528.200000,153.354102 528.400000,150.354102 528.600000,146.645898 528.800000,143.645898 529,142.500000 529.200000,143.645898 529.400000,146.645898 529.600000,150.354102 529.800000,153.354102" stroke="black" fill="none" /><line y2="169" stroke-width="2" stroke="orange" x1="275" y1="169" x2="525" /><circle cy="169" r="10" fill="lightgreen" stroke="black" cx="525" /><polyline fill="none" points="520,172.500000 520.200000,172.500000 520.400000,172.500000 520.600000,172.500000 520.800000,172.500000 521,172.500000 521.200000,172.500000 521.400000,172.500000 521.600000,172.500000 521.800000,172.500000 522,172.500000 522.200000,172.500000 522.400000,172.500000 522.600000,172.500000 522.800000,172.500000 523,172.500000 523.200000,172.500000 523.400000,172.500000 523.600000,172.500000 523.800000,172.500000 524,172.500000 524.200000,172.500000 524.400000,172.500000 524.600000,172.500000 524.800000,172.500000 525,172.500000 525.200000,171.300000 525.400000,170.100000 525.600000,168.900000 525.800000,167.700000 526,166.500000 526.200000,165.300000 526.400000,164.100000 526.600000,162.900000 526.800000,161.700000 527,160.500000" stroke="black" /><line y1="25" x2="225" y2="25" stroke-width="2" stroke="orange" x1="175" /><line x1="525" y1="25" x2="225" y2="25" stroke-width="2" stroke="orange" /><circle cx="225" cy="25" r="10" fill="lightyellow" stroke="black" /><polyline points="220,28.500000 220.200000,28.500000 220.400000,28.500000 220.600000,28.500000 220.800000,28.500000 221,28.500000 221.200000,28.500000 221.400000,28.500000 221.600000,28.500000 221.800000,28.500000 222,28.500000 222.200000,28.500000 222.400000,28.500000 222.600000,28.500000 222.800000,28.500000 223,28.500000 223.200000,28.500000 223.400000,28.500000 223.600000,28.500000 223.800000,28.500000 224,28.500000 224.200000,28.500000 224.400000,28.500000 224.600000,28.500000 224.800000,28.500000 225,28.500000 225.200000,22.500000 225.400000,22.500000 225.600000,22.500000 225.800000,22.500000 226,22.500000 226.200000,22.500000 226.400000,22.500000 226.600000,22.500000 226.800000,22.500000 227,22.500000 227.200000,22.500000 227.400000,22.500000 227.600000,22.500000 227.800000,22.500000 228,22.500000 228.200000,22.500000 228.400000,22.500000 228.600000,22.500000 228.800000,22.500000 229,22.500000 229.200000,22.500000 229.400000,22.500000 229.600000,22.500000 229.800000,22.500000 230,22.500000" stroke="black" fill="none" /><line y2="49" stroke-width="2" stroke="orange" x1="175" y1="25" x2="225" /><line y2="49" stroke-width="2" stroke="orange" x1="225" y1="25" x2="225" /><circle cx="225" cy="49" r="10" fill="lightyellow" stroke="black" /><polyline points="223,40.500000 223.200000,41.700000 223.400000,42.900000 223.600000,44.100000 223.800000,45.300000 224,46.500000 224.200000,47.700000 224.400000,48.900000 224.600000,50.100000 224.800000,51.300000 225,52.500000 225.200000,53.700000 225.400000,54.900000 225.600000,56.100000 225.800000,57.300000" stroke="black" fill="none" /><line x1="275" y1="49" x2="225" y2="73" stroke-width="2" stroke="orange" /><line x1="575" y1="25" x2="225" y2="73" stroke-width="2" stroke="orange" /><circle cy="73" r="10" fill="lightyellow" stroke="black" cx="225" /><polyline points="223,64.500000 223.200000,65.700000 223.400000,66.900000 223.600000,68.100000 223.800000,69.300000 224,70.500000 224.200000,71.700000 224.400000,72.900000 224.600000,74.100000 224.800000,75.300000 225,76.500000 225.200000,77.700000 225.400000,78.900000 225.600000,80.100000 225.800000,81.300000" stroke="black" fill="none" /><line x2="225" y2="97" stroke-width="2" stroke="orange" x1="325" y1="25" /><circle cy="97" r="10" fill="lightyellow" stroke="black" cx="225" /><polyline points="220,100.457874 220.200000,100.448818 220.400000,100.437826 220.600000,100.424492 220.800000,100.408330 221,100.388756 221.200000,100.365078 221.400000,100.336476 221.600000,100.301986 221.800000,100.260486 222,100.210679 222.200000,100.151093 222.400000,100.080077 222.600000,99.995825 222.800000,99.896414 223,99.779872 223.200000,99.644283 223.400000,99.487928 223.600000,99.309468 223.800000,99.108154 224,98.884052 224.200000,98.638246 224.400000,98.372974 224.600000,98.091676 224.800000,97.798888 225,97.500000 225.200000,97.200880 225.400000,96.907423 225.600000,96.625096 225.800000,96.358546 226,96.111340 226.200000,95.885842 226.400000,95.683243 226.600000,95.503686 226.800000,95.346473 227,95.210285 227.200000,95.093400 227.400000,94.993881 227.600000,94.909727 227.800000,94.838978 228,94.779791 228.200000,94.730483 228.400000,94.689546 228.600000,94.655660 228.800000,94.627679 229,94.604621 229.200000,94.585653 229.400000,94.570071 229.600000,94.557288 229.800000,94.546811 230,94.538231" stroke="black" fill="none" /><line x1="175" y1="49" x2="225" y2="121" stroke-width="2" stroke="orange" /><circle stroke="black" cx="225" cy="121" r="10" fill="lightyellow" /><polyline stroke="black" fill="none" points="220,124.500000 220.200000,124.500000 220.400000,124.500000 220.600000,124.500000 220.800000,124.500000 221,124.500000 221.200000,124.500000 221.400000,124.500000 221.600000,124.500000 221.800000,124.500000 222,124.500000 222.200000,124.500000 222.400000,124.500000 222.600000,124.500000 222.800000,124.500000 223,124.500000 223.200000,124.500000 223.400000,124.500000 223.600000,124.500000 223.800000,124.500000 224,124.500000 224.200000,124.500000 224.400000,124.500000 224.600000,124.500000 224.800000,124.500000 225,124.500000 225.200000,123.300000 225.400000,122.100000 225.600000,120.900000 225.800000,119.700000 226,118.500000 226.200000,117.300000 226.400000,116.100000 226.600000,114.900000 226.800000,113.700000 227,112.500000" /><line x1="175" y1="25" x2="25" y2="25" stroke-width="2" stroke="orange" /><line stroke="orange" x1="325" y1="49" x2="25" y2="25" stroke-width="2" /><line x2="25" y2="25" stroke-width="2" stroke="orange" x1="525" y1="25" /><circle cx="25" cy="25" r="10" fill="gray" stroke="black" /><polyline points="23.600000,16.740000 23.800000,19.860000 24,22.500000 24.200000,24.660000 24.400000,26.340000 24.600000,27.540000 24.800000,28.260000 25,28.500000 25.200000,28.260000 25.400000,27.540000 25.600000,26.340000 25.800000,24.660000 26,22.500000 26.200000,19.860000 26.400000,16.740000" stroke="black" fill="none" /><line x2="275" y2="25" stroke-width="2" stroke="orange" x1="575" y1="25" /><line y1="25" x2="275" y2="25" stroke-width="2" stroke="orange" x1="225" /><line y2="25" stroke-width="2" stroke="orange" x1="525" y1="49" x2="275" /><line y2="25" stroke-width="2" stroke="orange" x1="375" y1="25" x2="275" /><line y1="49" x2="275" y2="25" stroke-width="2" stroke="orange" x1="225" /><circle stroke="black" cx="275" cy="25" r="10" fill="lightgreen" /><polyline points="270,28.500000 270.200000,32.026712 270.800000,32.026712 271,28.500000 271.200000,24.973288 271.400000,22.793661 271.600000,22.793661 271.800000,24.973288 272,28.500000 272.200000,32.026712 272.800000,32.026712 273,28.500000 273.200000,24.973288 273.400000,22.793661 273.600000,22.793661 273.800000,24.973288 274,28.500000 274.200000,32.026712 274.800000,32.026712 275,28.500000 275.200000,24.973288 275.400000,22.793661 275.600000,22.793661 275.800000,24.973288 276,28.500000 276.200000,32.026712 276.800000,32.026712 277,28.500000 277.200000,24.973288 277.400000,22.793661 277.600000,22.793661 277.800000,24.973288 278,28.500000 278.200000,32.026712 278.800000,32.026712 279,28.500000 279.200000,24.973288 279.400000,22.793661 279.600000,22.793661 279.800000,24.973288 280,28.500000" stroke="black" fill="none" /><line x1="575" y1="25" x2="275" y2="49" stroke-width="2" stroke="orange" /><circle cx="275" cy="49" r="10" fill="lightgreen" stroke="black" /><polyline points="273,40.500000 273.200000,41.700000 273.400000,42.900000 273.600000,44.100000 273.800000,45.300000 274,46.500000 274.200000,47.700000 274.400000,48.900000 274.600000,50.100000 274.800000,51.300000 275,52.500000 275.200000,51.300000 275.400000,50.100000 275.600000,48.900000 275.800000,47.700000 276,46.500000 276.200000,45.300000 276.400000,44.100000 276.600000,42.900000 276.800000,41.700000 277,40.500000" stroke="black" fill="none" /><line x1="225" y1="49" x2="275" y2="73" stroke-width="2" stroke="orange" /><circle r="10" fill="lightgreen" stroke="black" cx="275" cy="73" /><polyline fill="none" points="270,76.499984 270.200000,76.499954 270.400000,76.499878 270.600000,76.499689 270.800000,76.499241 271,76.498228 271.200000,76.496042 271.400000,76.491534 271.600000,76.482656 271.800000,76.465957 272,76.435961 272.200000,76.384509 272.400000,76.300263 272.600000,76.168644 272.800000,75.972576 273,75.694340 273.200000,75.318704 273.400000,74.837124 273.600000,74.252364 273.800000,73.582448 274,72.862595 274.200000,72.143978 274.400000,71.488696 274.600000,70.961371 274.800000,70.618813 275,70.500000 275.200000,70.618813 275.400000,70.961371 275.600000,71.488696 275.800000,72.143978 276,72.862595 276.200000,73.582448 276.400000,74.252364 276.600000,74.837124 276.800000,75.318704 277,75.694340 277.200000,75.972576 277.400000,76.168644 277.600000,76.300263 277.800000,76.384509 278,76.435961 278.200000,76.465957 278.400000,76.482656 278.600000,76.491534 278.800000,76.496042 279,76.498228 279.200000,76.499241 279.400000,76.499689 279.600000,76.499878 279.800000,76.499954 280,76.499984" stroke="black" /><line x1="525" y1="25" x2="275" y2="97" stroke-width="2" stroke="orange" /><line x1="225" y1="73" x2="275" y2="97" stroke-width="2" stroke="orange" /><line x1="275" y1="73" x2="275" y2="97" stroke-width="2" stroke="orange" /><circle r="10" fill="lightgreen" stroke="black" cx="275" cy="97" /><polyline points="273,88.500000 273.200000,89.700000 273.400000,90.900000 273.600000,92.100000 273.800000,93.300000 274,94.500000 274.200000,95.700000 274.400000,96.900000 274.600000,98.100000 274.800000,99.300000 275,100.500000 275.200000,101.700000 275.400000,102.900000 275.600000,104.100000 275.800000,105.300000" stroke="black" fill="none" /><line x1="225" y1="97" x2="275" y2="121" stroke-width="2" stroke="orange" /><circle stroke="black" cx="275" cy="121" r="10" fill="lightgreen" /><polyline points="274.200000,129.300000 274.400000,128.100000 274.600000,126.900000 274.800000,125.700000 275,124.500000 275.200000,123.300000 275.400000,122.100000 275.600000,120.900000 275.800000,119.700000 276,118.500000 276.200000,117.300000 276.400000,116.100000 276.600000,114.900000 276.800000,113.700000 277,112.500000" stroke="black" fill="none" /><line stroke="orange" x1="225" y1="25" x2="275" y2="145" stroke-width="2" /><line stroke-width="2" stroke="orange" x1="525" y1="25" x2="275" y2="145" /><line stroke-width="2" stroke="orange" x1="275" y1="25" x2="275" y2="145" /><circle cx="275" cy="145" r="10" fill="lightgreen" stroke="black" /><polyline points="270,148.500000 270.200000,152.026712 270.800000,152.026712 271,148.500000 271.200000,144.973288 271.400000,142.793661 271.600000,142.793661 271.800000,144.973288 272,148.500000 272.200000,152.026712 272.800000,152.026712 273,148.500000 273.200000,144.973288 273.400000,142.793661 273.600000,142.793661 273.800000,144.973288 274,148.500000 274.200000,152.026712 274.800000,152.026712 275,148.500000 275.200000,144.973288 275.400000,142.793661 275.600000,142.793661 275.800000,144.973288 276,148.500000 276.200000,152.026712 276.800000,152.026712 277,148.500000 277.200000,144.973288 277.400000,142.793661 277.600000,142.793661 277.800000,144.973288 278,148.500000 278.200000,152.026712 278.800000,152.026712 279,148.500000 279.200000,144.973288 279.400000,142.793661 279.600000,142.793661 279.800000,144.973288 280,148.500000" stroke="black" fill="none" /><line x1="575" y1="25" x2="275" y2="169" stroke-width="2" stroke="orange" /><circle stroke="black" cx="275" cy="169" r="10" fill="lightgreen" /><polyline points="270,172.457874 270.200000,172.448818 270.400000,172.437826 270.600000,172.424492 270.800000,172.408330 271,172.388756 271.200000,172.365078 271.400000,172.336476 271.600000,172.301986 271.800000,172.260486 272,172.210679 272.200000,172.151093 272.400000,172.080077 272.600000,171.995825 272.800000,171.896414 273,171.779872 273.200000,171.644283 273.400000,171.487928 273.600000,171.309468 273.800000,171.108154 274,170.884052 274.200000,170.638246 274.400000,170.372974 274.600000,170.091676 274.800000,169.798888 275,169.500000 275.200000,169.200880 275.400000,168.907423 275.600000,168.625096 275.800000,168.358546 276,168.111340 276.200000,167.885842 276.400000,167.683243 276.600000,167.503686 276.800000,167.346473 277,167.210285 277.200000,167.093400 277.400000,166.993881 277.600000,166.909727 277.800000,166.838978 278,166.779791 278.200000,166.730483 278.400000,166.689546 278.600000,166.655660 278.800000,166.627679 279,166.604621 279.200000,166.585653 279.400000,166.570071 279.600000,166.557288 279.800000,166.546811 280,166.538231" stroke="black" fill="none" /><line y1="121" x2="275" y2="193" stroke-width="2" stroke="orange" x1="225" /><line y2="193" stroke-width="2" stroke="orange" x1="225" y1="25" x2="275" /><line y2="193" stroke-width="2" stroke="orange" x1="275" y1="145" x2="275" /><circle cy="193" r="10" fill="lightgreen" stroke="black" cx="275" /><polyline points="274.200000,201.300000 274.400000,200.100000 274.600000,198.900000 274.800000,197.700000 275,196.500000 275.200000,195.300000 275.400000,194.100000 275.600000,192.900000 275.800000,191.700000 276,190.500000 276.200000,189.300000 276.400000,188.100000 276.600000,186.900000 276.800000,185.700000 277,184.500000" stroke="black" fill="none" /><line x1="475" y1="25" x2="275" y2="217" stroke-width="2" stroke="orange" /><line x1="275" y1="193" x2="275" y2="217" stroke-width="2" stroke="orange" /><circle cx="275" cy="217" r="10" fill="lightgreen" stroke="black" /><polyline points="273.600000,208.740000 273.800000,211.860000 274,214.500000 274.200000,216.660000 274.400000,218.340000 274.600000,219.540000 274.800000,220.260000 275,220.500000 275.200000,220.260000 275.400000,219.540000 275.600000,218.340000 275.800000,216.660000 276,214.500000 276.200000,211.860000 276.400000,208.740000" stroke="black" fill="none" /><line x1="325" y1="49" x2="275" y2="241" stroke-width="2" stroke="orange" /><circle stroke="black" cx="275" cy="241" r="10" fill="lightgreen" /><polyline points="273.600000,249.812110 273.800000,249.501928 274,249.069565 274.200000,248.484221 274.400000,247.722297 274.600000,246.779694 274.800000,245.684252 275,244.500000 275.200000,243.315748 275.400000,242.220306 275.600000,241.277703 275.800000,240.515779 276,239.930435 276.200000,239.498072 276.400000,239.187890 276.600000,238.969989 276.800000,238.819164 277,238.715835 277.200000,238.645541 277.400000,238.597951 277.600000,238.565836 277.800000,238.544211 278,238.529671 278.200000,238.519906 278.400000,238.513350 278.600000,238.508952 278.800000,238.506002 279,238.504024 279.200000,238.502698 279.400000,238.501809 279.600000,238.501212 279.800000,238.500813 280,238.500545" stroke="black" fill="none" /><line x1="275" y1="97" x2="275" y2="265" stroke-width="2" stroke="orange" /><line stroke-width="2" stroke="orange" x1="275" y1="193" x2="275" y2="265" /><circle cx="275" cy="265" r="10" fill="lightgreen" stroke="black" /><polyline points="273,256.500000 273.200000,257.700000 273.400000,258.900000 273.600000,260.100000 273.800000,261.300000 274,262.500000 274.200000,263.700000 274.400000,264.900000 274.600000,266.100000 274.800000,267.300000 275,268.500000 275.200000,269.700000 275.400000,270.900000 275.600000,272.100000 275.800000,273.300000" stroke="black" fill="none" /><line y2="25" stroke-width="2" stroke="orange" x1="425" y1="25" x2="175" /><line x1="525" y1="25" x2="175" y2="25" stroke-width="2" stroke="orange" /><circle stroke="black" cx="175" cy="25" r="10" fill="orange" /><polyline points="173,16.500000 173.200000,17.700000 173.400000,18.900000 173.600000,20.100000 173.800000,21.300000 174,22.500000 174.200000,23.700000 174.400000,24.900000 174.600000,26.100000 174.800000,27.300000 175,28.500000 175.200000,29.700000 175.400000,30.900000 175.600000,32.100000 175.800000,33.300000" stroke="black" fill="none" /><line y1="25" x2="175" y2="49" stroke-width="2" stroke="orange" x1="275" /><line y2="49" stroke-width="2" stroke="orange" x1="575" y1="25" x2="175" /><line y2="49" stroke-width="2" stroke="orange" x1="125" y1="25" x2="175" /><line y2="49" stroke-width="2" stroke="orange" x1="125" y1="49" x2="175" /><line stroke-width="2" stroke="orange" x1="225" y1="97" x2="175" y2="49" /><line y2="49" stroke-width="2" stroke="orange" x1="125" y1="73" x2="175" /><line stroke="orange" x1="325" y1="121" x2="175" y2="49" stroke-width="2" /><line stroke="orange" x1="75" y1="73" x2="175" y2="49" stroke-width="2" /><line stroke="orange" x1="225" y1="73" x2="175" y2="49" stroke-width="2" /><line stroke-width="2" stroke="orange" x1="125" y1="97" x2="175" y2="49" /><line x1="175" y1="49" x2="731" y2="193" stroke-width="2" stroke="#0099ff" /><circle stroke="black" cx="175" cy="49" r="10" fill="orange" /><polyline stroke="black" fill="none" points="170,52.500000 170.200000,56.026712 170.800000,56.026712 171,52.500000 171.200000,48.973288 171.400000,46.793661 171.600000,46.793661 171.800000,48.973288 172,52.500000 172.200000,56.026712 172.800000,56.026712 173,52.500000 173.200000,48.973288 173.400000,46.793661 173.600000,46.793661 173.800000,48.973288 174,52.500000 174.200000,56.026712 174.800000,56.026712 175,52.500000 175.200000,48.973288 175.400000,46.793661 175.600000,46.793661 175.800000,48.973288 176,52.500000 176.200000,56.026712 176.800000,56.026712 177,52.500000 177.200000,48.973288 177.400000,46.793661 177.600000,46.793661 177.800000,48.973288 178,52.500000 178.200000,56.026712 178.800000,56.026712 179,52.500000 179.200000,48.973288 179.400000,46.793661 179.600000,46.793661 179.800000,48.973288 180,52.500000" /><line y1="25" x2="125" y2="25" stroke-width="2" stroke="orange" x1="375" /><line stroke-width="2" stroke="orange" x1="575" y1="25" x2="125" y2="25" /><line x1="225" y1="121" x2="125" y2="25" stroke-width="2" stroke="orange" /><line y1="49" x2="125" y2="25" stroke-width="2" stroke="orange" x1="525" /><line x1="525" y1="25" x2="125" y2="25" stroke-width="2" stroke="orange" /><circle cx="125" cy="25" r="10" fill="red" stroke="black" /><polyline points="120,28.499984 120.200000,28.499954 120.400000,28.499878 120.600000,28.499689 120.800000,28.499241 121,28.498228 121.200000,28.496042 121.400000,28.491534 121.600000,28.482656 121.800000,28.465957 122,28.435961 122.200000,28.384509 122.400000,28.300263 122.600000,28.168644 122.800000,27.972576 123,27.694340 123.200000,27.318704 123.400000,26.837124 123.600000,26.252364 123.800000,25.582448 124,24.862595 124.200000,24.143978 124.400000,23.488696 124.600000,22.961371 124.800000,22.618813 125,22.500000 125.200000,22.618813 125.400000,22.961371 125.600000,23.488696 125.800000,24.143978 126,24.862595 126.200000,25.582448 126.400000,26.252364 126.600000,26.837124 126.800000,27.318704 127,27.694340 127.200000,27.972576 127.400000,28.168644 127.600000,28.300263 127.800000,28.384509 128,28.435961 128.200000,28.465957 128.400000,28.482656 128.600000,28.491534 128.800000,28.496042 129,28.498228 129.200000,28.499241 129.400000,28.499689 129.600000,28.499878 129.800000,28.499954" stroke="black" fill="none" /><line y2="49" stroke-width="2" stroke="orange" x1="75" y1="25" x2="125" /><line x1="525" y1="25" x2="125" y2="49" stroke-width="2" stroke="orange" /><circle fill="red" stroke="black" cx="125" cy="49" r="10" /><polyline points="123,40.500000 123.200000,41.700000 123.400000,42.900000 123.600000,44.100000 123.800000,45.300000 124,46.500000 124.200000,47.700000 124.400000,48.900000 124.600000,50.100000 124.800000,51.300000 125,52.500000 125.200000,53.700000 125.400000,54.900000 125.600000,56.100000 125.800000,57.300000" stroke="black" fill="none" /><line stroke-width="2" stroke="orange" x1="225" y1="49" x2="125" y2="73" /><line x2="125" y2="73" stroke-width="2" stroke="orange" x1="75" y1="49" /><line y1="25" x2="125" y2="73" stroke-width="2" stroke="orange" x1="275" /><line x1="75" y1="73" x2="125" y2="73" stroke-width="2" stroke="orange" /><circle fill="red" stroke="black" cx="125" cy="73" r="10" /><polyline points="120,76.457874 120.200000,76.448818 120.400000,76.437826 120.600000,76.424492 120.800000,76.408330 121,76.388756 121.200000,76.365078 121.400000,76.336476 121.600000,76.301986 121.800000,76.260486 122,76.210679 122.200000,76.151093 122.400000,76.080077 122.600000,75.995825 122.800000,75.896414 123,75.779872 123.200000,75.644283 123.400000,75.487928 123.600000,75.309468 123.800000,75.108154 124,74.884052 124.200000,74.638246 124.400000,74.372974 124.600000,74.091676 124.800000,73.798888 125,73.500000 125.200000,73.200880 125.400000,72.907423 125.600000,72.625096 125.800000,72.358546 126,72.111340 126.200000,71.885842 126.400000,71.683243 126.600000,71.503686 126.800000,71.346473 127,71.210285 127.200000,71.093400 127.400000,70.993881 127.600000,70.909727 127.800000,70.838978 128,70.779791 128.200000,70.730483 128.400000,70.689546 128.600000,70.655660 128.800000,70.627679 129,70.604621 129.200000,70.585653 129.400000,70.570071 129.600000,70.557288 129.800000,70.546811" stroke="black" fill="none" /><line stroke="orange" x1="325" y1="49" x2="125" y2="97" stroke-width="2" /><line stroke-width="2" stroke="orange" x1="225" y1="97" x2="125" y2="97" /><circle fill="red" stroke="black" cx="125" cy="97" r="10" /><polyline points="120,100.499984 120.200000,100.499954 120.400000,100.499878 120.600000,100.499689 120.800000,100.499241 121,100.498228 121.200000,100.496042 121.400000,100.491534 121.600000,100.482656 121.800000,100.465957 122,100.435961 122.200000,100.384509 122.400000,100.300263 122.600000,100.168644 122.800000,99.972576 123,99.694340 123.200000,99.318704 123.400000,98.837124 123.600000,98.252364 123.800000,97.582448 124,96.862595 124.200000,96.143978 124.400000,95.488696 124.600000,94.961371 124.800000,94.618813 125,94.500000 125.200000,94.618813 125.400000,94.961371 125.600000,95.488696 125.800000,96.143978 126,96.862595 126.200000,97.582448 126.400000,98.252364 126.600000,98.837124 126.800000,99.318704 127,99.694340 127.200000,99.972576 127.400000,100.168644 127.600000,100.300263 127.800000,100.384509 128,100.435961 128.200000,100.465957 128.400000,100.482656 128.600000,100.491534 128.800000,100.496042 129,100.498228 129.200000,100.499241 129.400000,100.499689 129.600000,100.499878 129.800000,100.499954" stroke="black" fill="none" /><line y2="193" stroke-width="2" stroke="#0099ff" x1="575" y1="25" x2="731" /><circle fill="lightblue" stroke="black" cx="575" cy="25" r="10" /><polyline points="573,16.500000 573.200000,17.700000 573.400000,18.900000 573.600000,20.100000 573.800000,21.300000 574,22.500000 574.200000,23.700000 574.400000,24.900000 574.600000,26.100000 574.800000,27.300000 575,28.500000 575.200000,27.300000 575.400000,26.100000 575.600000,24.900000 575.800000,23.700000 576,22.500000 576.200000,21.300000 576.400000,20.100000 576.600000,18.900000 576.800000,17.700000 577,16.500000" stroke="black" fill="none" /><line y1="25" x2="575" y2="49" stroke-width="2" stroke="orange" x1="525" /><line y1="25" x2="575" y2="49" stroke-width="2" stroke="orange" x1="575" /><line stroke="orange" x1="525" y1="49" x2="575" y2="49" stroke-width="2" /><line x1="525" y1="73" x2="575" y2="49" stroke-width="2" stroke="orange" /><line x1="525" y1="97" x2="575" y2="49" stroke-width="2" stroke="orange" /><line stroke-width="2" stroke="#0099ff" x1="575" y1="49" x2="731" y2="193" /><circle cx="575" cy="49" r="10" fill="lightblue" stroke="black" /><polyline stroke="black" fill="none" points="570,52.500000 570.200000,56.026712 570.800000,56.026712 571,52.500000 571.200000,48.973288 571.400000,46.793661 571.600000,46.793661 571.800000,48.973288 572,52.500000 572.200000,56.026712 572.800000,56.026712 573,52.500000 573.200000,48.973288 573.400000,46.793661 573.600000,46.793661 573.800000,48.973288 574,52.500000 574.200000,56.026712 574.800000,56.026712 575,52.500000 575.200000,48.973288 575.400000,46.793661 575.600000,46.793661 575.800000,48.973288 576,52.500000 576.200000,56.026712 576.800000,56.026712 577,52.500000 577.200000,48.973288 577.400000,46.793661 577.600000,46.793661 577.800000,48.973288 578,52.500000 578.200000,56.026712 578.800000,56.026712 579,52.500000 579.200000,48.973288 579.400000,46.793661 579.600000,46.793661 579.800000,48.973288" /><line stroke="orange" x1="375" y1="25" x2="575" y2="73" stroke-width="2" /><line y1="121" x2="575" y2="73" stroke-width="2" stroke="orange" x1="225" /><line x2="575" y2="73" stroke-width="2" stroke="orange" x1="175" y1="49" /><line x2="731" y2="193" stroke-width="2" stroke="#0099ff" x1="575" y1="73" /><circle fill="lightblue" stroke="black" cx="575" cy="73" r="10" /><polyline fill="none" points="570,76.500000 570.200000,80.026712 570.800000,80.026712 571,76.500000 571.200000,72.973288 571.400000,70.793661 571.600000,70.793661 571.800000,72.973288 572,76.500000 572.200000,80.026712 572.800000,80.026712 573,76.500000 573.200000,72.973288 573.400000,70.793661 573.600000,70.793661 573.800000,72.973288 574,76.500000 574.200000,80.026712 574.800000,80.026712 575,76.500000 575.200000,72.973288 575.400000,70.793661 575.600000,70.793661 575.800000,72.973288 576,76.500000 576.200000,80.026712 576.800000,80.026712 577,76.500000 577.200000,72.973288 577.400000,70.793661 577.600000,70.793661 577.800000,72.973288 578,76.500000 578.200000,80.026712 578.800000,80.026712 579,76.500000 579.200000,72.973288 579.400000,70.793661 579.600000,70.793661 579.800000,72.973288" stroke="black" /><line x1="425" y1="49" x2="575" y2="97" stroke-width="2" stroke="orange" /><line y2="97" stroke-width="2" stroke="orange" x1="575" y1="49" x2="575" /><line x2="575" y2="97" stroke-width="2" stroke="orange" x1="525" y1="121" /><line y1="145" x2="575" y2="97" stroke-width="2" stroke="orange" x1="525" /><line stroke-width="2" stroke="#0099ff" x1="575" y1="97" x2="731" y2="193" /><circle cx="575" cy="97" r="10" fill="lightblue" stroke="black" /><polyline points="570,100.500000 570.200000,104.026712 570.800000,104.026712 571,100.500000 571.200000,96.973288 571.400000,94.793661 571.600000,94.793661 571.800000,96.973288 572,100.500000 572.200000,104.026712 572.800000,104.026712 573,100.500000 573.200000,96.973288 573.400000,94.793661 573.600000,94.793661 573.800000,96.973288 574,100.500000 574.200000,104.026712 574.800000,104.026712 575,100.500000 575.200000,96.973288 575.400000,94.793661 575.600000,94.793661 575.800000,96.973288 576,100.500000 576.200000,104.026712 576.800000,104.026712 577,100.500000 577.200000,96.973288 577.400000,94.793661 577.600000,94.793661 577.800000,96.973288 578,100.500000 578.200000,104.026712 578.800000,104.026712 579,100.500000 579.200000,96.973288 579.400000,94.793661 579.600000,94.793661 579.800000,96.973288" stroke="black" fill="none" /><line y2="121" stroke-width="2" stroke="orange" x1="525" y1="49" x2="575" /><line x1="525" y1="169" x2="575" y2="121" stroke-width="2" stroke="orange" /><line x1="575" y1="121" x2="731" y2="193" stroke-width="2" stroke="#0099ff" /><circle cy="121" r="10" fill="lightblue" stroke="black" cx="575" /><polyline points="570,124.500000 570.200000,124.500000 570.400000,124.500000 570.600000,124.500000 570.800000,124.500000 571,124.500000 571.200000,124.500000 571.400000,124.500000 571.600000,124.500000 571.800000,124.500000 572,124.500000 572.200000,124.500000 572.400000,124.500000 572.600000,124.500000 572.800000,124.500000 573,124.500000 573.200000,124.500000 573.400000,124.500000 573.600000,124.500000 573.800000,124.500000 574,124.500000 574.200000,124.500000 574.400000,124.500000 574.600000,124.500000 574.800000,124.500000 575,118.500000 575.200000,118.500000 575.400000,118.500000 575.600000,118.500000 575.800000,118.500000 576,118.500000 576.200000,118.500000 576.400000,118.500000 576.600000,118.500000 576.800000,118.500000 577,118.500000 577.200000,118.500000 577.400000,118.500000 577.600000,118.500000 577.800000,118.500000 578,118.500000 578.200000,118.500000 578.400000,118.500000 578.600000,118.500000 578.800000,118.500000 579,118.500000 579.200000,118.500000 579.400000,118.500000 579.600000,118.500000 579.800000,118.500000" stroke="black" fill="none" /><line x1="75" y1="73" x2="575" y2="145" stroke-width="2" stroke="orange" /><line stroke="orange" x1="575" y1="121" x2="575" y2="145" stroke-width="2" /><line x1="575" y1="145" x2="731" y2="193" stroke-width="2" stroke="#0099ff" /><circle cx="575" cy="145" r="10" fill="lightblue" stroke="black" /><polyline points="574.200000,153.300000 574.400000,152.100000 574.600000,150.900000 574.800000,149.700000 575,148.500000 575.200000,147.300000 575.400000,146.100000 575.600000,144.900000 575.800000,143.700000 576,142.500000 576.200000,141.300000 576.400000,140.100000 576.600000,138.900000 576.800000,137.700000 577,136.500000" stroke="black" fill="none" /><line x1="425" y1="25" x2="475" y2="25" stroke-width="2" stroke="orange" /><line stroke="orange" x1="575" y1="49" x2="475" y2="25" stroke-width="2" /><line stroke="orange" x1="575" y1="25" x2="475" y2="25" stroke-width="2" /><line x1="325" y1="49" x2="475" y2="25" stroke-width="2" stroke="orange" /><line x2="475" y2="25" stroke-width="2" stroke="orange" x1="425" y1="49" /><line x1="375" y1="121" x2="475" y2="25" stroke-width="2" stroke="orange" /><line y2="193" stroke-width="2" stroke="#0099ff" x1="475" y1="25" x2="731" /><circle fill="lightyellow" stroke="black" cx="475" cy="25" r="10" /><polyline points="473,16.500000 473.200000,17.700000 473.400000,18.900000 473.600000,20.100000 473.800000,21.300000 474,22.500000 474.200000,23.700000 474.400000,24.900000 474.600000,26.100000 474.800000,27.300000 475,28.500000 475.200000,27.300000 475.400000,26.100000 475.600000,24.900000 475.800000,23.700000 476,22.500000 476.200000,21.300000 476.400000,20.100000 476.600000,18.900000 476.800000,17.700000 477,16.500000" stroke="black" fill="none" /><line x1="275" y1="73" x2="475" y2="49" stroke-width="2" stroke="orange" /><line x1="425" y1="73" x2="475" y2="49" stroke-width="2" stroke="orange" /><line y2="49" stroke-width="2" stroke="orange" x1="425" y1="97" x2="475" /><circle stroke="black" cx="475" cy="49" r="10" fill="lightyellow" /><polyline points="470.200000,57.354102 470.400000,54.354102 470.600000,50.645898 470.800000,47.645898 471,46.500000 471.200000,47.645898 471.400000,50.645898 471.600000,54.354102 471.800000,57.354102 472.200000,57.354102 472.400000,54.354102 472.600000,50.645898 472.800000,47.645898 473,46.500000 473.200000,47.645898 473.400000,50.645898 473.600000,54.354102 473.800000,57.354102 474.200000,57.354102 474.400000,54.354102 474.600000,50.645898 474.800000,47.645898 475,46.500000 475.200000,47.645898 475.400000,50.645898 475.600000,54.354102 475.800000,57.354102 476.200000,57.354102 476.400000,54.354102 476.600000,50.645898 476.800000,47.645898 477,46.500000 477.200000,47.645898 477.400000,50.645898 477.600000,54.354102 477.800000,57.354102 478.200000,57.354102 478.400000,54.354102 478.600000,50.645898 478.800000,47.645898 479,46.500000 479.200000,47.645898 479.400000,50.645898 479.600000,54.354102 479.800000,57.354102" stroke="black" fill="none" /><line x1="275" y1="97" x2="475" y2="73" stroke-width="2" stroke="orange" /><circle fill="lightyellow" stroke="black" cx="475" cy="73" r="10" /><polyline points="470.200000,81.354102 470.400000,78.354102 470.600000,74.645898 470.800000,71.645898 471,70.500000 471.200000,71.645898 471.400000,74.645898 471.600000,78.354102 471.800000,81.354102 472.200000,81.354102 472.400000,78.354102 472.600000,74.645898 472.800000,71.645898 473,70.500000 473.200000,71.645898 473.400000,74.645898 473.600000,78.354102 473.800000,81.354102 474.200000,81.354102 474.400000,78.354102 474.600000,74.645898 474.800000,71.645898 475,70.500000 475.200000,71.645898 475.400000,74.645898 475.600000,78.354102 475.800000,81.354102 476.200000,81.354102 476.400000,78.354102 476.600000,74.645898 476.800000,71.645898 477,70.500000 477.200000,71.645898 477.400000,74.645898 477.600000,78.354102 477.800000,81.354102 478.200000,81.354102 478.400000,78.354102 478.600000,74.645898 478.800000,71.645898 479,70.500000 479.200000,71.645898 479.400000,74.645898 479.600000,78.354102 479.800000,81.354102" stroke="black" fill="none" /><line y1="73" x2="475" y2="97" stroke-width="2" stroke="orange" x1="275" /><circle fill="lightyellow" stroke="black" cx="475" cy="97" r="10" /><polyline points="470,100.500000 470.200000,100.500000 470.400000,100.500000 470.600000,100.500000 470.800000,100.500000 471,100.500000 471.200000,100.500000 471.400000,100.500000 471.600000,100.500000 471.800000,100.500000 472,100.500000 472.200000,100.500000 472.400000,100.500000 472.600000,100.500000 472.800000,100.500000 473,100.500000 473.200000,100.500000 473.400000,100.500000 473.600000,100.500000 473.800000,100.500000 474,100.500000 474.200000,100.500000 474.400000,100.500000 474.600000,100.500000 474.800000,100.500000 475,100.500000 475.200000,99.300000 475.400000,98.100000 475.600000,96.900000 475.800000,95.700000 476,94.500000 476.200000,93.300000 476.400000,92.100000 476.600000,90.900000 476.800000,89.700000 477,88.500000" stroke="black" fill="none" /><line x1="425" y1="49" x2="475" y2="121" stroke-width="2" stroke="orange" /><line y1="25" x2="475" y2="121" stroke-width="2" stroke="orange" x1="575" /><circle cx="475" cy="121" r="10" fill="lightyellow" stroke="black" /><polyline points="473,112.500000 473.200000,113.700000 473.400000,114.900000 473.600000,116.100000 473.800000,117.300000 474,118.500000 474.200000,119.700000 474.400000,120.900000 474.600000,122.100000 474.800000,123.300000 475,124.500000 475.200000,123.300000 475.400000,122.100000 475.600000,120.900000 475.800000,119.700000 476,118.500000 476.200000,117.300000 476.400000,116.100000 476.600000,114.900000 476.800000,113.700000 477,112.500000" stroke="black" fill="none" /><line x2="475" y2="145" stroke-width="2" stroke="orange" x1="25" y1="25" /><circle cx="475" cy="145" r="10" fill="lightyellow" stroke="black" /><polyline points="473.600000,153.812110 473.800000,153.501928 474,153.069565 474.200000,152.484221 474.400000,151.722297 474.600000,150.779694 474.800000,149.684252 475,148.500000 475.200000,147.315748 475.400000,146.220306 475.600000,145.277703 475.800000,144.515779 476,143.930435 476.200000,143.498072 476.400000,143.187890 476.600000,142.969989 476.800000,142.819164 477,142.715835 477.200000,142.645541 477.400000,142.597951 477.600000,142.565836 477.800000,142.544211 478,142.529671 478.200000,142.519906 478.400000,142.513350 478.600000,142.508952 478.800000,142.506002 479,142.504024 479.200000,142.502698 479.400000,142.501809 479.600000,142.501212 479.800000,142.500813 480,142.500545" stroke="black" fill="none" /><line y2="25" stroke-width="2" stroke="orange" x1="525" y1="25" x2="425" /><line stroke-width="2" stroke="orange" x1="575" y1="25" x2="425" y2="25" /><line x1="375" y1="25" x2="425" y2="25" stroke-width="2" stroke="orange" /><line x1="375" y1="49" x2="425" y2="25" stroke-width="2" stroke="orange" /><line stroke-width="2" stroke="orange" x1="375" y1="73" x2="425" y2="25" /><line y2="25" stroke-width="2" stroke="orange" x1="375" y1="97" x2="425" /><circle cx="425" cy="25" r="10" fill="orange" stroke="black" /><polyline fill="none" points="424.200000,33.300000 424.400000,32.100000 424.600000,30.900000 424.800000,29.700000 425,28.500000 425.200000,27.300000 425.400000,26.100000 425.600000,24.900000 425.800000,23.700000 426,22.500000 426.200000,21.300000 426.400000,20.100000 426.600000,18.900000 426.800000,17.700000 427,16.500000" stroke="black" /><line x1="375" y1="25" x2="425" y2="49" stroke-width="2" stroke="orange" /><line stroke-width="2" stroke="orange" x1="375" y1="121" x2="425" y2="49" /><line x2="425" y2="49" stroke-width="2" stroke="orange" x1="575" y1="25" /><line x2="425" y2="49" stroke-width="2" stroke="orange" x1="375" y1="145" /><circle r="10" fill="orange" stroke="black" cx="425" cy="49" /><polyline fill="none" points="423.600000,57.812110 423.800000,57.501928 424,57.069565 424.200000,56.484221 424.400000,55.722297 424.600000,54.779694 424.800000,53.684252 425,52.500000 425.200000,51.315748 425.400000,50.220306 425.600000,49.277703 425.800000,48.515779 426,47.930435 426.200000,47.498072 426.400000,47.187890 426.600000,46.969989 426.800000,46.819164 427,46.715835 427.200000,46.645541 427.400000,46.597951 427.600000,46.565836 427.800000,46.544211 428,46.529671 428.200000,46.519906 428.400000,46.513350 428.600000,46.508952 428.800000,46.506002 429,46.504024 429.200000,46.502698 429.400000,46.501809 429.600000,46.501212 429.800000,46.500813 430,46.500545" stroke="black" /><line x1="375" y1="73" x2="425" y2="73" stroke-width="2" stroke="orange" /><line x1="375" y1="169" x2="425" y2="73" stroke-width="2" stroke="orange" /><line stroke="orange" x1="475" y1="25" x2="425" y2="73" stroke-width="2" /><line stroke="orange" x1="375" y1="193" x2="425" y2="73" stroke-width="2" /><circle cx="425" cy="73" r="10" fill="orange" stroke="black" /><polyline points="423.600000,81.812110 423.800000,81.501928 424,81.069565 424.200000,80.484221 424.400000,79.722297 424.600000,78.779694 424.800000,77.684252 425,76.500000 425.200000,75.315748 425.400000,74.220306 425.600000,73.277703 425.800000,72.515779 426,71.930435 426.200000,71.498072 426.400000,71.187890 426.600000,70.969989 426.800000,70.819164 427,70.715835 427.200000,70.645541 427.400000,70.597951 427.600000,70.565836 427.800000,70.544211 428,70.529671 428.200000,70.519906 428.400000,70.513350 428.600000,70.508952 428.800000,70.506002 429,70.504024 429.200000,70.502698 429.400000,70.501809 429.600000,70.501212 429.800000,70.500813 430,70.500545" stroke="black" fill="none" /><line stroke="orange" x1="125" y1="25" x2="425" y2="97" stroke-width="2" /><circle cx="425" cy="97" r="10" fill="orange" stroke="black" /><polyline points="420.200000,105.354102 420.400000,102.354102 420.600000,98.645898 420.800000,95.645898 421,94.500000 421.200000,95.645898 421.400000,98.645898 421.600000,102.354102 421.800000,105.354102 422.200000,105.354102 422.400000,102.354102 422.600000,98.645898 422.800000,95.645898 423,94.500000 423.200000,95.645898 423.400000,98.645898 423.600000,102.354102 423.800000,105.354102 424.200000,105.354102 424.400000,102.354102 424.600000,98.645898 424.800000,95.645898 425,94.500000 425.200000,95.645898 425.400000,98.645898 425.600000,102.354102 425.800000,105.354102 426.200000,105.354102 426.400000,102.354102 426.600000,98.645898 426.800000,95.645898 427,94.500000 427.200000,95.645898 427.400000,98.645898 427.600000,102.354102 427.800000,105.354102 428.200000,105.354102 428.400000,102.354102 428.600000,98.645898 428.800000,95.645898 429,94.500000 429.200000,95.645898 429.400000,98.645898 429.600000,102.354102 429.800000,105.354102" stroke="black" fill="none" /><line stroke-width="2" stroke="orange" x1="525" y1="25" x2="375" y2="25" /><line x1="575" y1="25" x2="375" y2="25" stroke-width="2" stroke="orange" /><line x1="325" y1="25" x2="375" y2="25" stroke-width="2" stroke="orange" /><line x1="275" y1="73" x2="375" y2="25" stroke-width="2" stroke="orange" /><circle r="10" fill="red" stroke="black" cx="375" cy="25" /><polyline points="370.200000,33.354102 370.400000,30.354102 370.600000,26.645898 370.800000,23.645898 371,22.500000 371.200000,23.645898 371.400000,26.645898 371.600000,30.354102 371.800000,33.354102 372.200000,33.354102 372.400000,30.354102 372.600000,26.645898 372.800000,23.645898 373,22.500000 373.200000,23.645898 373.400000,26.645898 373.600000,30.354102 373.800000,33.354102 374.200000,33.354102 374.400000,30.354102 374.600000,26.645898 374.800000,23.645898 375,22.500000 375.200000,23.645898 375.400000,26.645898 375.600000,30.354102 375.800000,33.354102 376.200000,33.354102 376.400000,30.354102 376.600000,26.645898 376.800000,23.645898 377,22.500000 377.200000,23.645898 377.400000,26.645898 377.600000,30.354102 377.800000,33.354102 378.200000,33.354102 378.400000,30.354102 378.600000,26.645898 378.800000,23.645898 379,22.500000 379.200000,23.645898 379.400000,26.645898 379.600000,30.354102 379.800000,33.354102" stroke="black" fill="none" /><line x1="325" y1="49" x2="375" y2="49" stroke-width="2" stroke="orange" /><line y1="25" x2="375" y2="49" stroke-width="2" stroke="orange" x1="525" /><line x1="575" y1="25" x2="375" y2="49" stroke-width="2" stroke="orange" /><circle cx="375" cy="49" r="10" fill="red" stroke="black" /><polyline fill="none" points="370,52.499984 370.200000,52.499954 370.400000,52.499878 370.600000,52.499689 370.800000,52.499241 371,52.498228 371.200000,52.496042 371.400000,52.491534 371.600000,52.482656 371.800000,52.465957 372,52.435961 372.200000,52.384509 372.400000,52.300263 372.600000,52.168644 372.800000,51.972576 373,51.694340 373.200000,51.318704 373.400000,50.837124 373.600000,50.252364 373.800000,49.582448 374,48.862595 374.200000,48.143978 374.400000,47.488696 374.600000,46.961371 374.800000,46.618813 375,46.500000 375.200000,46.618813 375.400000,46.961371 375.600000,47.488696 375.800000,48.143978 376,48.862595 376.200000,49.582448 376.400000,50.252364 376.600000,50.837124 376.800000,51.318704 377,51.694340 377.200000,51.972576 377.400000,52.168644 377.600000,52.300263 377.800000,52.384509 378,52.435961 378.200000,52.465957 378.400000,52.482656 378.600000,52.491534 378.800000,52.496042 379,52.498228 379.200000,52.499241 379.400000,52.499689 379.600000,52.499878 379.800000,52.499954 380,52.499984" stroke="black" /><line x1="325" y1="49" x2="375" y2="73" stroke-width="2" stroke="orange" /><line x1="275" y1="49" x2="375" y2="73" stroke-width="2" stroke="orange" /><line stroke="orange" x1="575" y1="25" x2="375" y2="73" stroke-width="2" /><circle stroke="black" cx="375" cy="73" r="10" fill="red" /><polyline stroke="black" fill="none" points="370,76.500000 370.200000,76.500000 370.400000,76.500000 370.600000,76.500000 370.800000,76.500000 371,76.500000 371.200000,76.500000 371.400000,76.500000 371.600000,76.500000 371.800000,76.500000 372,76.500000 372.200000,76.500000 372.400000,76.500000 372.600000,76.500000 372.800000,76.500000 373,76.500000 373.200000,76.500000 373.400000,76.500000 373.600000,76.500000 373.800000,76.500000 374,76.500000 374.200000,76.500000 374.400000,76.500000 374.600000,76.500000 374.800000,76.500000 375,76.500000 375.200000,70.500000 375.400000,70.500000 375.600000,70.500000 375.800000,70.500000 376,70.500000 376.200000,70.500000 376.400000,70.500000 376.600000,70.500000 376.800000,70.500000 377,70.500000 377.200000,70.500000 377.400000,70.500000 377.600000,70.500000 377.800000,70.500000 378,70.500000 378.200000,70.500000 378.400000,70.500000 378.600000,70.500000 378.800000,70.500000 379,70.500000 379.200000,70.500000 379.400000,70.500000 379.600000,70.500000 379.800000,70.500000 380,70.500000" /><line stroke-width="2" stroke="orange" x1="275" y1="25" x2="375" y2="97" /><circle cx="375" cy="97" r="10" fill="red" stroke="black" /><polyline points="374.200000,105.300000 374.400000,104.100000 374.600000,102.900000 374.800000,101.700000 375,100.500000 375.200000,99.300000 375.400000,98.100000 375.600000,96.900000 375.800000,95.700000 376,94.500000 376.200000,93.300000 376.400000,92.100000 376.600000,90.900000 376.800000,89.700000 377,88.500000" stroke="black" fill="none" /><line x1="325" y1="25" x2="375" y2="121" stroke-width="2" stroke="orange" /><line stroke="orange" x1="275" y1="73" x2="375" y2="121" stroke-width="2" /><line y1="25" x2="375" y2="121" stroke-width="2" stroke="orange" x1="375" /><line y1="73" x2="375" y2="121" stroke-width="2" stroke="orange" x1="325" /><line x1="325" y1="97" x2="375" y2="121" stroke-width="2" stroke="orange" /><circle cx="375" cy="121" r="10" fill="red" stroke="black" /><polyline points="374.200000,129.300000 374.400000,128.100000 374.600000,126.900000 374.800000,125.700000 375,124.500000 375.200000,123.300000 375.400000,122.100000 375.600000,120.900000 375.800000,119.700000 376,118.500000 376.200000,117.300000 376.400000,116.100000 376.600000,114.900000 376.800000,113.700000 377,112.500000" stroke="black" fill="none" /><line stroke-width="2" stroke="orange" x1="325" y1="121" x2="375" y2="145" /><circle cx="375" cy="145" r="10" fill="red" stroke="black" /><polyline points="370,148.499984 370.200000,148.499954 370.400000,148.499878 370.600000,148.499689 370.800000,148.499241 371,148.498228 371.200000,148.496042 371.400000,148.491534 371.600000,148.482656 371.800000,148.465957 372,148.435961 372.200000,148.384509 372.400000,148.300263 372.600000,148.168644 372.800000,147.972576 373,147.694340 373.200000,147.318704 373.400000,146.837124 373.600000,146.252364 373.800000,145.582448 374,144.862595 374.200000,144.143978 374.400000,143.488696 374.600000,142.961371 374.800000,142.618813 375,142.500000 375.200000,142.618813 375.400000,142.961371 375.600000,143.488696 375.800000,144.143978 376,144.862595 376.200000,145.582448 376.400000,146.252364 376.600000,146.837124 376.800000,147.318704 377,147.694340 377.200000,147.972576 377.400000,148.168644 377.600000,148.300263 377.800000,148.384509 378,148.435961 378.200000,148.465957 378.400000,148.482656 378.600000,148.491534 378.800000,148.496042 379,148.498228 379.200000,148.499241 379.400000,148.499689 379.600000,148.499878 379.800000,148.499954 380,148.499984" stroke="black" fill="none" /><line x1="75" y1="25" x2="375" y2="169" stroke-width="2" stroke="orange" /><line x1="575" y1="25" x2="375" y2="169" stroke-width="2" stroke="orange" /><line stroke-width="2" stroke="orange" x1="325" y1="145" x2="375" y2="169" /><circle fill="red" stroke="black" cx="375" cy="169" r="10" /><polyline points="370,172.500000 370.200000,172.500000 370.400000,172.500000 370.600000,172.500000 370.800000,172.500000 371,172.500000 371.200000,172.500000 371.400000,172.500000 371.600000,172.500000 371.800000,172.500000 372,172.500000 372.200000,172.500000 372.400000,172.500000 372.600000,172.500000 372.800000,172.500000 373,172.500000 373.200000,172.500000 373.400000,172.500000 373.600000,172.500000 373.800000,172.500000 374,172.500000 374.200000,172.500000 374.400000,172.500000 374.600000,172.500000 374.800000,172.500000 375,172.500000 375.200000,166.500000 375.400000,166.500000 375.600000,166.500000 375.800000,166.500000 376,166.500000 376.200000,166.500000 376.400000,166.500000 376.600000,166.500000 376.800000,166.500000 377,166.500000 377.200000,166.500000 377.400000,166.500000 377.600000,166.500000 377.800000,166.500000 378,166.500000 378.200000,166.500000 378.400000,166.500000 378.600000,166.500000 378.800000,166.500000 379,166.500000 379.200000,166.500000 379.400000,166.500000 379.600000,166.500000 379.800000,166.500000 380,166.500000" stroke="black" fill="none" /><line y1="49" x2="375" y2="193" stroke-width="2" stroke="orange" x1="175" /><circle stroke="black" cx="375" cy="193" r="10" fill="red" /><polyline points="373.600000,201.812110 373.800000,201.501928 374,201.069565 374.200000,200.484221 374.400000,199.722297 374.600000,198.779694 374.800000,197.684252 375,196.500000 375.200000,195.315748 375.400000,194.220306 375.600000,193.277703 375.800000,192.515779 376,191.930435 376.200000,191.498072 376.400000,191.187890 376.600000,190.969989 376.800000,190.819164 377,190.715835 377.200000,190.645541 377.400000,190.597951 377.600000,190.565836 377.800000,190.544211 378,190.529671 378.200000,190.519906 378.400000,190.513350 378.600000,190.508952 378.800000,190.506002 379,190.504024 379.200000,190.502698 379.400000,190.501809 379.600000,190.501212 379.800000,190.500813 380,190.500545" stroke="black" fill="none" /><line x1="275" y1="25" x2="325" y2="25" stroke-width="2" stroke="orange" /><line stroke="orange" x1="225" y1="49" x2="325" y2="25" stroke-width="2" /><line x1="575" y1="25" x2="325" y2="25" stroke-width="2" stroke="orange" /><line stroke="orange" x1="275" y1="49" x2="325" y2="25" stroke-width="2" /><line x1="275" y1="73" x2="325" y2="25" stroke-width="2" stroke="orange" /><line stroke-width="2" stroke="orange" x1="275" y1="97" x2="325" y2="25" /><line x1="275" y1="121" x2="325" y2="25" stroke-width="2" stroke="orange" /><circle cx="325" cy="25" r="10" fill="lightblue" stroke="black" /><polyline stroke="black" fill="none" points="323.600000,16.740000 323.800000,19.860000 324,22.500000 324.200000,24.660000 324.400000,26.340000 324.600000,27.540000 324.800000,28.260000 325,28.500000 325.200000,28.260000 325.400000,27.540000 325.600000,26.340000 325.800000,24.660000 326,22.500000 326.200000,19.860000 326.400000,16.740000" /><line x1="525" y1="25" x2="325" y2="49" stroke-width="2" stroke="orange" /><line stroke="orange" x1="575" y1="25" x2="325" y2="49" stroke-width="2" /><line y1="25" x2="325" y2="49" stroke-width="2" stroke="orange" x1="425" /><line y2="49" stroke-width="2" stroke="orange" x1="275" y1="145" x2="325" /><circle r="10" fill="lightblue" stroke="black" cx="325" cy="49" /><polyline points="320,52.500000 320.200000,56.026712 320.800000,56.026712 321,52.500000 321.200000,48.973288 321.400000,46.793661 321.600000,46.793661 321.800000,48.973288 322,52.500000 322.200000,56.026712 322.800000,56.026712 323,52.500000 323.200000,48.973288 323.400000,46.793661 323.600000,46.793661 323.800000,48.973288 324,52.500000 324.200000,56.026712 324.800000,56.026712 325,52.500000 325.200000,48.973288 325.400000,46.793661 325.600000,46.793661 325.800000,48.973288 326,52.500000 326.200000,56.026712 326.800000,56.026712 327,52.500000 327.200000,48.973288 327.400000,46.793661 327.600000,46.793661 327.800000,48.973288 328,52.500000 328.200000,56.026712 328.800000,56.026712 329,52.500000 329.200000,48.973288 329.400000,46.793661 329.600000,46.793661 329.800000,48.973288 330,52.500000" stroke="black" fill="none" /><line y2="73" stroke-width="2" stroke="orange" x1="325" y1="49" x2="325" /><circle fill="lightblue" stroke="black" cx="325" cy="73" r="10" /><polyline points="323,64.500000 323.200000,65.700000 323.400000,66.900000 323.600000,68.100000 323.800000,69.300000 324,70.500000 324.200000,71.700000 324.400000,72.900000 324.600000,74.100000 324.800000,75.300000 325,76.500000 325.200000,75.300000 325.400000,74.100000 325.600000,72.900000 325.800000,71.700000 326,70.500000 326.200000,69.300000 326.400000,68.100000 326.600000,66.900000 326.800000,65.700000 327,64.500000" stroke="black" fill="none" /><line x1="275" y1="169" x2="325" y2="97" stroke-width="2" stroke="orange" /><circle cx="325" cy="97" r="10" fill="lightblue" stroke="black" /><polyline points="324.200000,105.300000 324.400000,104.100000 324.600000,102.900000 324.800000,101.700000 325,100.500000 325.200000,99.300000 325.400000,98.100000 325.600000,96.900000 325.800000,95.700000 326,94.500000 326.200000,93.300000 326.400000,92.100000 326.600000,90.900000 326.800000,89.700000 327,88.500000" stroke="black" fill="none" /><line stroke-width="2" stroke="orange" x1="225" y1="49" x2="325" y2="121" /><line y2="121" stroke-width="2" stroke="orange" x1="275" y1="193" x2="325" /><line stroke="orange" x1="275" y1="217" x2="325" y2="121" stroke-width="2" /><line x1="275" y1="241" x2="325" y2="121" stroke-width="2" stroke="orange" /><circle fill="lightblue" stroke="black" cx="325" cy="121" r="10" /><polyline points="323,112.500000 323.200000,113.700000 323.400000,114.900000 323.600000,116.100000 323.800000,117.300000 324,118.500000 324.200000,119.700000 324.400000,120.900000 324.600000,122.100000 324.800000,123.300000 325,124.500000 325.200000,125.700000 325.400000,126.900000 325.600000,128.100000 325.800000,129.300000" stroke="black" fill="none" /><line x2="325" y2="145" stroke-width="2" stroke="orange" x1="275" y1="265" /><circle stroke="black" cx="325" cy="145" r="10" fill="lightblue" /><polyline points="320,148.457874 320.200000,148.448818 320.400000,148.437826 320.600000,148.424492 320.800000,148.408330 321,148.388756 321.200000,148.365078 321.400000,148.336476 321.600000,148.301986 321.800000,148.260486 322,148.210679 322.200000,148.151093 322.400000,148.080077 322.600000,147.995825 322.800000,147.896414 323,147.779872 323.200000,147.644283 323.400000,147.487928 323.600000,147.309468 323.800000,147.108154 324,146.884052 324.200000,146.638246 324.400000,146.372974 324.600000,146.091676 324.800000,145.798888 325,145.500000 325.200000,145.200880 325.400000,144.907423 325.600000,144.625096 325.800000,144.358546 326,144.111340 326.200000,143.885842 326.400000,143.683243 326.600000,143.503686 326.800000,143.346473 327,143.210285 327.200000,143.093400 327.400000,142.993881 327.600000,142.909727 327.800000,142.838978 328,142.779791 328.200000,142.730483 328.400000,142.689546 328.600000,142.655660 328.800000,142.627679 329,142.604621 329.200000,142.585653 329.400000,142.570071 329.600000,142.557288 329.800000,142.546811 330,142.538231" stroke="black" fill="none" /><line y2="25" stroke-width="2" stroke="orange" x1="425" y1="25" x2="75" /><line y2="25" stroke-width="2" stroke="orange" x1="25" y1="25" x2="75" /><line x1="375" y1="49" x2="75" y2="25" stroke-width="2" stroke="orange" /><line x1="575" y1="25" x2="75" y2="25" stroke-width="2" stroke="orange" /><line y1="49" x2="75" y2="25" stroke-width="2" stroke="orange" x1="325" /><circle cx="75" cy="25" r="10" fill="gray" stroke="black" /><polyline points="70,28.500000 70.200000,32.026712 70.800000,32.026712 71,28.500000 71.200000,24.973288 71.400000,22.793661 71.600000,22.793661 71.800000,24.973288 72,28.500000 72.200000,32.026712 72.800000,32.026712 73,28.500000 73.200000,24.973288 73.400000,22.793661 73.600000,22.793661 73.800000,24.973288 74,28.500000 74.200000,32.026712 74.800000,32.026712 75,28.500000 75.200000,24.973288 75.400000,22.793661 75.600000,22.793661 75.800000,24.973288 76,28.500000 76.200000,32.026712 76.800000,32.026712 77,28.500000 77.200000,24.973288 77.400000,22.793661 77.600000,22.793661 77.800000,24.973288 78,28.500000 78.200000,32.026712 78.800000,32.026712 79,28.500000 79.200000,24.973288 79.400000,22.793661 79.600000,22.793661 79.800000,24.973288" stroke="black" fill="none" /><line x1="225" y1="97" x2="75" y2="49" stroke-width="2" stroke="orange" /><line x1="225" y1="25" x2="75" y2="49" stroke-width="2" stroke="orange" /><line stroke="orange" x1="525" y1="25" x2="75" y2="49" stroke-width="2" /><circle cy="49" r="10" fill="gray" stroke="black" cx="75" /><polyline fill="none" points="70,52.500000 70.200000,52.500000 70.400000,52.500000 70.600000,52.500000 70.800000,52.500000 71,52.500000 71.200000,52.500000 71.400000,52.500000 71.600000,52.500000 71.800000,52.500000 72,52.500000 72.200000,52.500000 72.400000,52.500000 72.600000,52.500000 72.800000,52.500000 73,52.500000 73.200000,52.500000 73.400000,52.500000 73.600000,52.500000 73.800000,52.500000 74,52.500000 74.200000,52.500000 74.400000,52.500000 74.600000,52.500000 74.800000,52.500000 75,46.500000 75.200000,46.500000 75.400000,46.500000 75.600000,46.500000 75.800000,46.500000 76,46.500000 76.200000,46.500000 76.400000,46.500000 76.600000,46.500000 76.800000,46.500000 77,46.500000 77.200000,46.500000 77.400000,46.500000 77.600000,46.500000 77.800000,46.500000 78,46.500000 78.200000,46.500000 78.400000,46.500000 78.600000,46.500000 78.800000,46.500000 79,46.500000 79.200000,46.500000 79.400000,46.500000 79.600000,46.500000 79.800000,46.500000" stroke="black" /><line x1="225" y1="25" x2="75" y2="73" stroke-width="2" stroke="orange" /><circle cx="75" cy="73" r="10" fill="gray" stroke="black" /><polyline points="70,76.500000 70.200000,76.500000 70.400000,76.500000 70.600000,76.500000 70.800000,76.500000 71,76.500000 71.200000,76.500000 71.400000,76.500000 71.600000,76.500000 71.800000,76.500000 72,76.500000 72.200000,76.500000 72.400000,76.500000 72.600000,76.500000 72.800000,76.500000 73,76.500000 73.200000,76.500000 73.400000,76.500000 73.600000,76.500000 73.800000,76.500000 74,76.500000 74.200000,76.500000 74.400000,76.500000 74.600000,76.500000 74.800000,76.500000 75,76.500000 75.200000,75.300000 75.400000,74.100000 75.600000,72.900000 75.800000,71.700000 76,70.500000 76.200000,69.300000 76.400000,68.100000 76.600000,66.900000 76.800000,65.700000 77,64.500000" stroke="black" fill="none" /><circle r="10" fill="magenta" stroke="black" cx="731" cy="193" /></svg>